<?xml version="1.0" encoding="utf-8" ?>
<svg xmlns="http://www.w3.org/2000/svg" xmlns:xlink="http://www.w3.org/1999/xlink" width="402" height="406">
	<path transform="scale(0.52407 0.529627)" d="M78.2644 768L-0 768L0 -0L768 0L768 768L686.386 768L678.75 768L655.125 768L97.875 768L78.2644 768Z"/>
	<path fill="#89F86F" transform="scale(0.52407 0.529627)" d="M125.384 442.327L126.579 450.487L125.812 451.423L125.007 451.14L124.176 445.213C125.335 444.325 125.152 443.732 125.384 442.327Z"/>
	<path fill="#033D02" transform="scale(0.52407 0.529627)" d="M70.1282 401.197C70.1242 399.346 70.2 396.642 71.2577 395.062L71.831 395.306L71.6572 406.915C71.7248 410.088 72.4211 413.734 72.025 416.817C71.4039 415.105 71.4227 413.009 71.2624 411.196L71.0625 401.158L70.1282 401.197Z"/>
	<path fill="#086301" transform="scale(0.52407 0.529627)" d="M70.1282 401.197L71.0625 401.158L71.2624 411.196C71.0661 410.557 70.7222 409.785 70.6789 409.125C69.8293 412.867 70.6305 416.699 70.1138 420.442C69.6072 418.354 69.7408 415.824 69.7402 413.667L70.1282 401.197Z"/>
	<path fill="#CAFFC6" transform="scale(0.52407 0.529627)" d="M122.543 431.829L122.976 432.21C123.145 432.857 123.262 433.469 123.562 434.066C123.863 433.158 123.755 432.703 123.386 431.83L124.093 431.645L125.384 442.327C125.152 443.732 125.335 444.325 124.176 445.213C123.128 440.956 122.667 436.202 122.543 431.829Z"/>
	<path fill="#8DAE94" transform="scale(0.52407 0.529627)" d="M161.322 434.812L162.054 435.018C162.59 438.393 162.467 441.973 162.546 445.388L162.562 462.834L162.306 462.518C161.649 461.345 161.582 458.415 161.462 457.034C161.086 452.686 161.046 448.316 161.024 443.955C161.01 440.912 160.868 437.828 161.322 434.812Z"/>
	<path fill="#626262" transform="scale(0.52407 0.529627)" d="M370.886 560.089L371.876 566.813L372.191 566.625L372.206 566.236C372.246 565.331 372.241 564.632 372.708 563.823C373.108 568.38 372.826 573.187 372.792 577.767C372.763 581.644 373.066 585.886 372.335 589.693C371.514 586.564 371.371 583.146 371.163 579.924C370.74 573.37 370.729 566.654 370.886 560.089Z"/>
	<path fill="#89F86F" transform="scale(0.52407 0.529627)" d="M122.217 427.965L122.097 427.442C121.531 424.795 121.794 421.493 121.731 418.773C121.649 415.179 121.117 410.612 121.737 407.093C121.858 406.406 122.226 405.872 122.601 405.3L123.51 423.402L124.093 431.645L123.386 431.83C123.755 432.703 123.863 433.158 123.562 434.066C123.262 433.469 123.145 432.857 122.976 432.21L122.543 431.829C122.116 430.956 122.273 428.989 122.217 427.965Z"/>
	<path fill="#9BFE80" transform="scale(0.52407 0.529627)" d="M122.217 427.965L122.42 421.523L122.835 421.688L123.51 423.402L124.093 431.645L123.386 431.83C123.755 432.703 123.863 433.158 123.562 434.066C123.262 433.469 123.145 432.857 122.976 432.21L122.543 431.829C122.116 430.956 122.273 428.989 122.217 427.965Z"/>
	<path fill="#C3CAC8" transform="scale(0.52407 0.529627)" d="M370.522 547.873C371.167 548.312 371.61 548.518 372.375 548.678C372.989 546.884 372.642 544.158 372.659 542.244C372.717 535.728 372.218 528.594 373.086 522.177L372.708 563.823C372.241 564.632 372.246 565.331 372.206 566.236L372.191 566.625L371.876 566.813L370.886 560.089C370.79 556.145 371.128 551.735 370.522 547.873Z"/>
	<path fill="#1AAC16" transform="scale(0.52407 0.529627)" d="M153.72 603.188L154.685 603.085C162.405 607.659 168.668 615.249 173.922 622.431C169.743 619.278 166.259 615.574 162.493 611.966C159.512 609.109 156.31 606.413 153.72 603.188Z"/>
	<path fill="#8DAE94" transform="scale(0.52407 0.529627)" d="M426.842 395.42C430.068 396.59 432.185 399.643 435.367 400.93L434.527 401.435C434.276 402.191 434.042 403.183 433.475 403.762C432.385 404.874 430.233 404.676 428.812 404.565C426.772 402.769 428.355 401.544 427.609 399.375L427.275 398.721L426.842 395.42Z"/>
	<path fill="#89F86F" transform="scale(0.52407 0.529627)" d="M124.414 337.042C124.721 336.871 124.557 336.992 124.881 336.56L125.156 336.186L125.31 336.856L125.631 336.75L129.485 322.36L130.703 323.93C127.643 332.473 125.751 341.748 124.518 350.713C123.347 349.632 123.04 348.95 122.8 347.382C124.04 344.346 123.311 340.257 124.414 337.042Z"/>
	<path fill="#C3CAC8" transform="scale(0.52407 0.529627)" d="M435.778 434.802C436.321 437.185 436.219 439.867 436.308 442.312L436.669 442.312C437.56 439.711 437.118 436.194 437.127 433.413L437.133 409.729C437.135 405.911 436.663 401.358 437.468 397.661L437.273 471.742L436.5 472.482C435.849 471.296 436.228 467.963 436.208 466.54C436.129 460.787 436.319 454.902 435.797 449.174L435.778 434.802Z"/>
	<path fill="#1AAC16" transform="scale(0.52407 0.529627)" d="M143.21 569.812L143.708 569.723L151.734 585.142C155.769 592.082 160.559 598.771 163.564 606.24C157.635 600.584 153.038 591.917 149.308 584.704C146.85 579.952 144.283 575.096 143.21 569.812Z"/>
	<path fill="#626262" transform="scale(0.52407 0.529627)" d="M435.797 449.174C436.319 454.902 436.129 460.787 436.208 466.54C436.228 467.963 435.849 471.296 436.5 472.482L437.273 471.742L437.344 476.964L437.438 528.282C436.635 525.468 437.239 521.065 437.25 518.062C436.635 518.985 436.875 520.113 436.875 521.209L436.875 530.438C435.77 528.297 435.729 506.483 436.124 503.118L435.797 449.174Z"/>
	<path fill="#086301" transform="scale(0.52407 0.529627)" d="M272.286 195.991C271.999 196.68 271.923 197.276 271.276 197.666C270.599 198.073 270.144 198.666 269.447 199.014C267.703 199.886 265.483 202.827 264.038 204.252L257.736 209.912C257.176 210.467 257.735 209.921 256.873 210.373L255.305 211.574C254.928 211.867 254.517 211.987 254.156 212.248L253.875 212.533L256.723 212.515C257.579 212.515 256.95 212.484 257.812 212.816C258.976 213.265 261.053 213.012 262.312 213C262.751 212.208 262.945 211.754 262.969 210.844L270.24 203.549C270.861 202.928 270.227 203.567 271.219 202.969L272.439 201.656L272.25 201.375L271.799 201.756C271.272 202.187 270.756 202.51 270.188 202.875L269.625 203.25L268.691 203.062C269.231 202.181 269.645 201.859 270.375 201.188L272.438 198.941L272.819 198.991C275.699 198.98 291.02 187.649 294.95 185.537C293.517 188.765 286.81 192.276 283.875 194.235C278.009 198.151 272.31 202.504 267.212 207.383C266.171 208.379 264.267 209.94 263.649 211.226C263.387 211.772 263.445 212.493 263.438 213.083C265.596 213.996 267.597 214.65 269.641 215.841C267.661 215.899 265.956 215.415 264.019 215.19C263.416 215.12 261.949 215.132 261.467 214.886L261.804 213.938L251.736 213.337C251.767 213.134 251.73 212.907 251.83 212.727C251.984 212.45 258.196 208.347 259.264 207.457C262.728 204.57 265.674 200.859 269.25 198.179C269.834 197.741 270.071 197.596 270.398 196.923L272.286 195.991Z"/>
	<path fill="#EDF2F4" transform="scale(0.52407 0.529627)" d="M516.13 612.188L516.626 612.314C514.624 614.481 511.988 616.014 509.551 617.648C497.343 625.832 483.592 631.895 469.914 637.164L466.5 638.58C455.642 642.64 444.801 646.949 433.312 648.981L432.331 648.93C433.074 648.432 433.531 648.157 434.425 648.035C437.004 647.681 439.624 646.617 442.125 645.881L462.737 639.346C474.026 635.57 484.768 629.613 495.172 623.89L516.13 612.188Z"/>
	<path fill="#EDF2F4" transform="scale(0.52407 0.529627)" d="M562.306 347.812L562.34 348.022C560.639 349.891 557.426 351.346 555.257 352.736L543.934 360.324L519.619 377.108C515.098 380.252 510.479 384.325 505.376 386.438C505.267 386.103 505.325 386.346 505.392 385.688C510.389 381.092 515.965 377.316 521.506 373.419L552.407 353.427C555.566 351.553 558.898 349.147 562.306 347.812Z"/>
	<path fill="#EDF2F4" transform="scale(0.52407 0.529627)" d="M531.921 164.438C534.091 164.753 537.656 168.074 539.411 169.402C550.172 177.545 560.715 186.325 570.432 195.689C574.889 199.985 579.398 204.289 583.247 209.151C578.193 207.008 573.909 202.102 569.908 198.349L551.031 180.547L531.921 164.438Z"/>
	<path fill="#EDF2F4" transform="scale(0.52407 0.529627)" d="M222.218 170.772C221.088 172.64 219.336 174.126 217.803 175.67L210.319 183.288C202.407 191.511 194.651 200.542 186.176 208.174C185.462 208.817 184.827 209.194 183.938 209.556C183.52 209.153 183.724 209.418 183.433 208.688C187.952 202.73 193.364 197.096 198.582 191.734C205.906 184.209 213.546 176.736 222.218 170.772Z"/>
	<path fill="#EDF2F4" transform="scale(0.52407 0.529627)" d="M586.567 554.438L587.058 554.801C574.202 572.045 558.076 588.226 541.017 601.312L540.608 601.359C541.53 599.979 543.01 598.823 544.204 597.675L550.543 591.436L574.281 566.547L581.789 558.769C583.3 557.225 584.723 555.591 586.567 554.438Z"/>
	<path fill="#EDF2F4" transform="scale(0.52407 0.529627)" d="M310.819 556.507C320.328 564.421 328.561 574.135 337.814 582.431L356.987 599.184C361.303 602.764 366.387 606.171 370.14 610.312L368.997 610.451C364.418 608.514 360.259 604.938 356.376 601.869C343.994 592.083 332.886 581.353 322.145 569.815C318.256 565.638 313.838 561.374 310.819 556.507Z"/>
	<path fill="#626262" transform="scale(0.52407 0.529627)" d="M398.023 438.027C399.781 438.508 400.323 439.38 401.543 440.651C402.873 442.036 404.402 443.203 405.813 444.498C406.014 444.683 406.859 445.615 407.091 445.691C407.963 445.977 410.165 445.691 411.151 445.691L423.191 445.691L423.191 440.625C424.094 439.713 423.447 433.424 423.968 431.631L424.147 431.085L424.211 463.346L398.023 438.027Z"/>
	<path fill="#1AAC16" transform="scale(0.52407 0.529627)" d="M526.788 119.438C527.225 119.458 527.046 119.43 527.655 119.62C530.217 120.422 533.26 123.226 535.528 124.83C543.754 130.65 551.852 136.572 559.312 143.371C564.885 148.449 569.884 154.021 574.896 159.637C577.313 162.344 580.366 165.175 582.065 168.388C577.634 164.985 573.834 161.013 569.828 157.138L556.942 145.542L544.356 135.943C540.685 133.399 536.681 130.925 533.292 128.032C531.478 126.484 526.952 121.686 526.788 119.438Z"/>
	<path fill="#EDF2F4" transform="scale(0.52407 0.529627)" d="M206.173 443.33L206.62 442.947C207.156 442.209 207.22 441.568 207.991 440.864C210.796 438.299 213.987 436.241 216.943 433.867L248.777 409.312L254.061 405.003C254.393 404.747 255.192 404.007 255.562 403.917C255.847 403.847 256.147 403.945 256.439 403.959L256.446 404.703L256.586 405.426C257.096 407.558 262.284 411.657 263.956 413.279C266.983 416.218 289.965 438.073 289.595 439.331C287.675 438.021 286.02 436.239 284.326 434.644L275.974 426.747C269.18 420.301 261.681 414.135 255.626 406.986L206.812 445.18L206.642 444.544C206.405 443.699 206.533 444.028 206.173 443.33Z"/>
	<path fill="#1AAC16" transform="scale(0.52407 0.529627)" d="M543.268 117.723C548.947 118.812 555.043 122.471 560.207 125.107C573.977 132.138 587.911 139.501 599.555 149.845C604.452 154.195 608.809 159.079 613.334 163.8C616.936 167.557 621.354 171.425 624.317 175.688L623.834 175.77C622.683 175.32 621.755 174.336 620.83 173.538L614.854 168.299L600.48 156.11L589.513 147.869C578.727 139.968 567.049 133.128 555.786 125.923C551.588 123.238 547.22 120.763 543.268 117.723Z"/>
	<path fill="#1AAC16" transform="scale(0.52407 0.529627)" d="M694.399 326.062L694.983 326.149C700.491 336.756 705.396 348.127 709.796 359.227C712.416 365.834 715.633 372.848 716.146 380.017C716.607 386.466 714.927 393.532 714.466 400.032C714.406 400.85 714.512 401.071 714 401.745C712.762 400.131 712.194 396.394 711.58 394.381C710.165 389.741 708.215 385.324 707.118 380.575C704.806 370.562 703.857 360.189 701.432 350.215L698.582 338.911L694.399 326.062Z"/>
	<path fill="#EDF2F4" transform="scale(0.52407 0.529627)" d="M371.391 135.532C372.539 133.506 373.37 131.866 375.036 130.175L375.518 129.671C377.873 127.835 386.355 128.2 389.459 128.062C391.113 127.989 393.025 127.675 394.646 128.056C396.037 128.383 397.035 129.169 397.709 130.448C399.184 133.247 399.734 137.231 398.734 140.25C398.263 141.672 397.586 143.03 396.806 144.306C394.526 146.591 392.716 147.951 389.438 148.552L388.907 148.66C384.504 149.492 380.061 148.792 376.356 146.23L374.744 145.04C372.095 141.916 371.616 139.492 371.391 135.532Z"/>
	<path fill="#1AAC16" transform="scale(0.52407 0.529627)" d="M232.655 111.188L233.571 111.148L233.654 111.562C221.822 117.782 211.021 125.894 200.245 133.74L152.124 170.307L128.062 189.96L127.308 190.312L127.364 189.938C128.047 187.508 136.382 180.166 138.561 177.96C156.776 159.508 175.612 142.556 197.895 129.057C208.965 122.35 220.921 116.632 232.655 111.188Z"/>
	<path fill="#1AAC16" transform="scale(0.52407 0.529627)" d="M70.7654 321.408C71.1574 321.336 73.3435 314.951 75 314.182L75.5375 314.957L70.8133 327.836C67.7065 336.123 65.8885 345.15 64.3148 353.835L60.7715 377.325C60.2376 382.634 60.7779 388.361 59.7991 393.559C58.5506 400.189 55.4774 406.484 53.358 412.879C52.1941 416.391 51.4689 420.146 49.9682 423.519C49.7679 421.124 50.2111 418.522 50.3929 416.117L51.2352 403.414C51.7985 393.8 51.8775 383.983 53.2034 374.438C55.4364 358.363 61.6623 342.651 68.1813 327.863L70.7654 321.408Z"/>
	<path fill="#C3CAC8" transform="scale(0.52407 0.529627)" d="M102.569 767.289L646.066 767.276L667.672 767.303L680.524 767.413C682.342 767.468 684.711 767.3 686.386 768L678.75 768L655.125 768L97.875 768L78.2644 768C81.0867 767.298 84.65 767.371 87.552 767.312L102.569 767.289Z"/>
	<path fill="#626262" transform="scale(0.52407 0.529627)" d="M527.618 435.746L527.829 436.229C528.095 436.903 528.165 437.475 528.239 438.188L528.733 438.264C530.264 438.568 537.403 446.399 539.1 447.999L545.098 453.405L557.257 464.133C559.661 466.162 564.241 468.99 565.755 471.671L565.901 471.99L568.337 472.436L540.622 472.528C539.289 472.548 535.397 473.169 534.397 472.812C532.573 472.159 530.132 469.621 528.65 468.343C528.183 465.785 528.443 462.83 528.417 460.226L528.238 444.336C528.165 441.436 527.557 438.615 527.618 435.746Z"/>
	<defs>
		<linearGradient id="gradient_0" gradientUnits="userSpaceOnUse" x1="81.326866" y1="485.54791" x2="101.1599" y2="476.8591">
			<stop offset="0" stop-color="#23C200"/>
			<stop offset="1" stop-color="#027501"/>
		</linearGradient>
	</defs>
	<path fill="url(#gradient_0)" transform="scale(0.52407 0.529627)" d="M70.1138 420.442C70.6305 416.699 69.8293 412.867 70.6789 409.125C70.7222 409.785 71.0661 410.557 71.2624 411.196C71.4227 413.009 71.4039 415.105 72.025 416.817C72.7848 426.8 76.749 436.355 79.4376 445.971L87.1875 476.072C91.2894 490.016 96.788 503.991 102.409 517.401L110.592 536.853C112.653 541.31 115.403 545.68 116.994 550.312C117.511 551.816 117.486 553.061 117.316 554.625L116.812 554.973C114.455 551.953 111.89 548.958 109.756 545.78C106.538 540.987 104.01 535.817 101.385 530.714C97.7273 523.602 94.1203 516.523 91.0769 509.117C85.0522 494.454 80.7496 479.454 76.9154 464.1C73.3924 449.992 70.1388 435.036 70.1138 420.442Z"/>
	<path fill="#626262" transform="scale(0.52407 0.529627)" d="M454.459 475.117L454.802 474.827L454.954 470.435C455.755 470.302 455.385 470.292 456.205 470.454C458.199 470.846 462.925 470.983 464.327 472.285L464.615 472.606C465.964 472.55 466.816 473.154 467.905 473.861L468.47 474.238C468.944 474.511 469.325 474.633 469.736 475.03C470.228 475.505 470.588 475.968 471.242 476.231C472.463 476.721 473.77 477.422 475.084 477.556L475.857 477.624C477.086 477.855 478.323 477.857 479.516 478.095C480.15 478.222 480.535 478.318 481.192 478.206C482.228 478.028 481.477 478.092 482.275 478.036C483.054 477.982 483.497 477.987 484.198 477.564L484.621 477.255C485.979 477.304 487.122 477.216 488.435 476.847C489.489 476.55 490.215 476.282 491.25 476.812C491.237 478.089 491.101 479.503 491.438 480.736L491.54 451.045C491.557 446.462 491.043 441.086 491.861 436.63L491.929 436.295C491.997 442.88 492.144 497.642 491.548 498.401C489.518 500.984 488.337 504.67 487.019 507.674L476.208 534.639C475.331 537.138 474.827 541.069 473.562 543.232C472.583 544.908 469.148 546.594 467.544 547.766L460.708 553.29C458.821 554.946 457.067 556.767 455.375 558.62C454.5 559.578 453.632 560.811 452.557 561.531L452.716 561.041C454.509 555.262 453.745 547.315 453.808 541.234L454.152 496.329C454.194 489.496 453.565 481.858 454.459 475.117Z"/>
	<path fill="#1AAC16" transform="scale(0.52407 0.529627)" d="M665.885 253.688L666.465 253.76C669.455 256.568 671.935 260.885 674.413 264.188C679.797 271.363 685.319 278.246 690.272 285.742L698.442 297.581C704.381 306.582 709.948 315.922 714.884 325.512C719.936 335.328 723.361 345.873 726.997 356.262C730.044 364.97 733.267 373.589 735.628 382.516L740.4 404.697C741.571 400.776 741.346 395.965 741.442 391.884C741.812 376.131 739.839 360.129 736.287 344.789L731.586 327.945C729.091 319.104 726.612 310.199 723.321 301.611C721.335 296.43 718.337 291.986 716.107 286.986C718.823 288.853 721.278 292.93 723.294 295.6C728.264 302.183 733.582 308.512 737.059 316.061C739.214 320.741 740.486 325.868 741.683 330.864C746.959 352.882 747.226 375.34 746.425 397.837C745.555 422.269 743.492 446.088 735.943 469.505C730.835 485.348 723.038 500.201 714.348 514.341C700.38 536.13 681.112 552.025 661.506 568.424L644.876 581.609C641.119 584.407 637.154 587.355 632.978 589.49C634.722 587.287 636.8 585.834 638.945 584.062L651.643 573.823C661.746 565.246 672.385 557.013 681.948 547.843C695.596 534.755 707.349 518.765 715.843 501.874C734.73 464.316 738.055 421.698 724.87 381.711C720.95 369.823 715.137 358.516 710.189 347.03L683.681 287.619L671.576 263.867C670.019 261.013 666.913 257.205 666.024 254.198L665.885 253.688Z"/>
	<path fill="#1AAC16" transform="scale(0.52407 0.529627)" d="M54.6297 289.885C58.9608 282.236 64.5731 274.874 70.1175 268.069C77.2144 259.359 84.6188 251.127 92.9556 243.566C103.599 233.913 115.582 225.355 127.676 217.6C132.584 214.453 138.402 209.881 143.886 208.091C141.229 210.789 137.634 212.985 134.534 215.174L120.438 225.575C108.288 235.221 96.7044 245.63 85.8345 256.693C74.7941 267.93 64.8143 279.368 56.4494 292.754C40.6472 318.043 32.3587 346.43 28.5635 375.846C27.4026 384.843 26.0899 394.937 28.1522 403.868C29.8392 399.383 30.126 393.957 31.0895 389.25C32.6818 381.471 34.9245 373.688 37.392 366.14C39.7239 359.007 42.3416 351.505 45.3201 344.632L54.5488 325.57C64.2759 305.911 75.138 287.41 87.7785 269.467C93.5268 261.307 99.5151 252.981 106.422 245.749L106.952 245.2C111.126 239.8 116.15 234.841 121.022 230.069C123.404 227.736 125.809 225.037 128.625 223.259L130.324 222.178L109.6 245.569C103.287 254.876 97.1793 264.226 92.2939 274.387C87.4859 284.388 83.5563 295.304 78.0637 304.903C78.4039 307.718 77.3348 312.649 75.5375 314.957L75 314.182C73.3435 314.951 71.1574 321.336 70.7654 321.408L70.5866 320.876L69.6431 320.625C61.0461 336.582 53.6487 352.908 47.1238 369.808C43.2695 379.791 39.4509 390.141 37.5084 400.688C35.9826 408.972 35.7663 417.744 35.9474 426.161C36.2404 439.78 37.6818 452.798 41.6143 465.89C45.2557 478.012 50.0646 489.56 56.0675 500.713L61.7855 510.375C63.6024 513.141 65.8104 515.457 66.6743 518.711C51.1135 502.395 40.0579 481.572 32.2141 460.57C29.4462 453.159 26.799 445.56 25.1527 437.812C21.4324 420.305 20.6011 401.6 21.0155 383.755C21.2809 372.328 22.8682 361.029 25.514 349.921C29.1215 334.051 37.172 318.812 45.3402 304.875C48.3022 299.821 51.1801 294.628 54.6297 289.885Z"/>
	<path fill="#033D02" transform="scale(0.52407 0.529627)" d="M78.0637 304.903C78.4039 307.718 77.3348 312.649 75.5375 314.957L75 314.182C73.3435 314.951 71.1574 321.336 70.7654 321.408L70.5866 320.876L69.6431 320.625L78.0637 304.903Z"/>
	<defs>
		<linearGradient id="gradient_1" gradientUnits="userSpaceOnUse" x1="531.88641" y1="402.55786" x2="507.51129" y2="319.83484">
			<stop offset="0" stop-color="#62836A"/>
			<stop offset="1" stop-color="#7F9C89"/>
		</linearGradient>
	</defs>
	<path fill="url(#gradient_1)" transform="scale(0.52407 0.529627)" d="M523.489 319.061C524.46 319.983 524.777 319.779 526.044 319.745L537.921 319.16L576.487 318.639C579.992 318.591 592.42 317.553 594.708 318.978C591.963 319.331 589.332 321.397 586.863 322.64L569.992 330.992L528.65 350.885L479.592 376.66C473.517 379.704 466.962 381.627 460.895 384.641C469.034 384.919 478.14 384.729 486.113 386.471L486.702 386.596C489.84 387.322 491.793 390.166 493.875 392.405C494.389 392.957 495.285 394.116 495.986 394.382C496.456 394.56 497.526 394.456 498.091 394.474L505.059 394.52L538.815 394.504C544.209 394.483 550.133 393.95 555.444 394.56L496.933 394.962C496.123 395.208 495.999 395.453 495.375 395.961L471.049 414.096L460.483 422.197C458.63 423.616 456.605 425.519 454.466 426.433L454.543 384.564C454.555 377.991 453.881 370.59 454.819 364.108L455.4 363.966C456.591 363.416 457.939 362.018 459.042 361.227C461.379 359.55 463.852 358.066 466.3 356.559L484.503 345.421C494.194 339.38 504.537 333.408 508.69 322.116L505.565 319.557C511.394 318.766 517.602 319.026 523.489 319.061Z"/>
	<defs>
		<linearGradient id="gradient_2" gradientUnits="userSpaceOnUse" x1="304.63141" y1="128.04657" x2="302.23444" y2="220.20566">
			<stop offset="0" stop-color="#0D7E00"/>
			<stop offset="1" stop-color="#14A101"/>
		</linearGradient>
	</defs>
	<path fill="url(#gradient_2)" transform="scale(0.52407 0.529627)" d="M362.486 130.579L373.425 128.453C372.088 129.975 370.586 131.456 369.74 133.312L369.546 133.719C368.802 135.377 368.95 137.28 368.9 139.062C369.829 141.566 370.77 143.013 372.637 144.892C373.578 145.198 373.775 145.225 374.744 145.04L376.356 146.23C380.061 148.792 384.504 149.492 388.907 148.66L389.438 148.552C392.716 147.951 394.526 146.591 396.806 144.306C398.063 144.922 398.094 144.75 399.405 144.411C398.858 145.931 397.866 146.886 396.866 148.116C394.598 150.906 391.556 152.969 389.223 155.66C376.881 157.012 364.345 156.63 352.125 159.267C351.172 159.472 347.934 159.836 347.468 160.461L347.555 160.838L331.491 164.797C329.268 165.316 326.225 166.071 324.228 167.106L324.75 167.625C325.698 167.612 327.229 167.042 328.125 166.688L328.5 166.408L329.25 166.312C329.958 166.207 330.543 166.092 331.125 165.658L331.875 165.562C332.921 165.341 334.053 164.965 335.062 164.625L338.625 163.783C339.198 163.659 339.673 163.38 340.219 163.219C341.809 162.748 344.665 162.872 345.938 161.816L346.725 162.18L346.761 162.515C323.122 167.951 298.965 175.505 279.373 190.283C277.282 191.86 273.76 193.934 272.286 195.991L270.398 196.923C270.071 197.596 269.834 197.741 269.25 198.179C265.674 200.859 262.728 204.57 259.264 207.457C258.196 208.347 251.984 212.45 251.83 212.727C251.73 212.907 251.767 213.134 251.736 213.337L261.804 213.938L261.467 214.886C256.24 214.835 250.587 215.115 245.43 215.934C240.437 216.726 235.151 218.307 230.067 218.272C224.141 219.495 217.012 218.742 210.904 219.119C213.688 215.64 215.363 211.622 217.486 207.745C219.264 204.498 221.151 201.328 223.636 198.562C230.865 190.514 239.823 184.064 248.541 177.737C260.623 168.968 273.463 160.194 286.717 153.3C294.98 149.002 303.578 145.289 312.446 142.427C321.733 139.429 331.486 136.69 341.059 134.785L354.417 132.163C356.99 131.676 359.619 131.438 362.135 130.688L362.486 130.579Z"/>
	<path fill="#1AAC16" transform="scale(0.52407 0.529627)" d="M251.736 213.337L261.804 213.938L261.467 214.886C256.24 214.835 250.587 215.115 245.43 215.934C240.437 216.726 235.151 218.307 230.067 218.272C228.672 218.112 225.909 218.524 224.812 217.875L229.125 217.875C230.278 217.106 230.979 217.128 232.314 217.031C230.208 215.616 227.751 216.915 225.456 216.57C226.925 215.952 229.167 216.089 230.787 215.872L251.736 213.337Z"/>
	<path fill="#4CDF17" transform="scale(0.52407 0.529627)" d="M347.468 160.461L347.555 160.838L331.491 164.797C329.268 165.316 326.225 166.071 324.228 167.106L324.75 167.625C325.698 167.612 327.229 167.042 328.125 166.688L328.5 166.408L329.25 166.312C329.958 166.207 330.543 166.092 331.125 165.658L331.875 165.562C332.921 165.341 334.053 164.965 335.062 164.625L338.625 163.783C339.198 163.659 339.673 163.38 340.219 163.219C341.809 162.748 344.665 162.872 345.938 161.816L346.725 162.18L346.761 162.515C323.122 167.951 298.965 175.505 279.373 190.283C277.282 191.86 273.76 193.934 272.286 195.991L270.398 196.923L270.215 195.563L271.502 194.252C272.809 193.537 273.672 192.367 274.875 191.441L278.252 188.63C279.37 187.997 278.375 188.821 279.115 188.21C280.176 187.334 281.281 186.636 282.375 185.816C283.15 185.236 283.802 184.817 284.625 184.316L288.75 181.693C289.848 180.929 290.988 180.489 292.125 179.816C303.223 173.249 315.929 168.649 328.281 165.11C334.577 163.306 340.996 161.504 347.468 160.461Z"/>
	<path fill="#1AAC16" transform="scale(0.52407 0.529627)" d="M646.477 355.045L644.616 342.114C644.538 341.59 643.672 337.995 643.768 337.811C643.845 337.663 644.042 337.619 644.178 337.522C648.665 334.284 651.027 326.983 652.638 321.845C652.788 321.369 652.951 321.043 653.174 320.608C653.571 319.833 653.588 319.23 653.708 318.375C653.832 317.49 653.974 316.979 654.567 316.313C655.002 317.078 655.366 317.754 655.667 318.583C656.756 321.59 658.242 324.576 659.447 327.563C664.63 340.402 669.488 354.214 671.924 367.877L674.03 379.688L674.174 381.002L674.58 384.377C676.197 394.587 676.499 404.924 676.546 415.333L676.457 431.771C675.54 450.193 672.412 468.857 667.254 486.568C664.569 495.788 660.878 504.444 657.577 513.428L647.315 538.383C645.673 542.027 644.102 546.026 642.081 549.467C642.07 547.212 642.256 544.813 641.668 542.625C639.852 535.87 636.318 529.433 633.116 523.239C631.115 519.369 629.314 515.325 626.582 511.905C638.315 488.141 645.777 462.284 648.039 435.865C649.844 414.777 648.738 393.091 647.55 372.008L647.354 371.815L646.477 355.045Z"/>
	<path fill="#033D02" transform="scale(0.52407 0.529627)" d="M646.477 355.045C647.828 357.545 648.248 361.312 648.764 364.135C650.877 375.681 652.726 386.981 651.905 398.812L651.375 399.116C650.226 395.896 650.555 390.823 650.348 387.391C650.043 382.337 649.613 376.915 648.562 371.956C647.801 371.94 648.137 371.906 647.55 372.008L647.354 371.815L646.477 355.045Z"/>
	<defs>
		<linearGradient id="gradient_3" gradientUnits="userSpaceOnUse" x1="394.0726" y1="497.26456" x2="336.38528" y2="640.35541">
			<stop offset="0" stop-color="#042C02"/>
			<stop offset="1" stop-color="#108C01"/>
		</linearGradient>
	</defs>
	<path fill="url(#gradient_3)" transform="scale(0.52407 0.529627)" d="M194.514 545.438C196.653 545.298 199.552 545.952 201.594 546.628C203.161 547.146 204.959 547.619 206.358 548.514C208.202 549.693 209.973 552.237 211.704 553.744C218.756 559.885 225.906 566.238 233.369 571.871C246.718 581.947 261.278 590.285 276.318 597.548C285.42 601.943 294.38 606.03 304.041 609.096C337.84 619.819 373.493 620.847 408.613 618.489C419.645 617.749 431.011 616.917 441.784 614.334C457.132 610.654 471.945 604.279 485.86 596.919C498.644 590.158 510.735 581.116 521.85 571.913C523.763 570.33 533.658 560.467 534.888 560.082C535.895 559.767 537.531 559.882 538.633 559.824C542.046 559.646 546.036 559.757 549.377 559.171L550.125 559.021L550.925 559.688C550.578 561.233 549.089 562.672 548.126 563.919C543.212 570.287 537.411 575.729 531.215 580.834L486.733 609.938L461.365 622.116C450.376 627.092 438.936 631.95 427.281 635.164C407.997 640.482 388.122 642.401 368.172 641.875C354.108 641.504 339.333 639.891 325.832 635.808C328.389 635.448 331.634 636.185 334.239 636.354C337.13 636.542 340.18 636.414 343.065 636.126C332.845 632.738 321.959 631.518 311.499 629.006C291.996 624.323 275.128 616.571 257.874 606.47C238.775 595.288 221.217 582.107 205.948 566.04C201.095 560.933 195.93 555.859 192.252 549.821C192.699 548.027 192.856 546.436 194.514 545.438Z"/>
	<defs>
		<linearGradient id="gradient_4" gradientUnits="userSpaceOnUse" x1="155.4274" y1="410.13223" x2="86.610069" y2="394.94586">
			<stop offset="0" stop-color="#0E8C01"/>
			<stop offset="1" stop-color="#34E000"/>
		</linearGradient>
	</defs>
	<path fill="url(#gradient_4)" transform="scale(0.52407 0.529627)" d="M134.094 506.688C134.045 507.482 133.435 508.711 133.158 509.511L130.486 517.093L120.161 547.06L119.915 546.922L109.735 522.86C104.108 508.212 99.7904 492.899 96.2726 477.62C94.8338 471.371 93.2629 465.184 92.4495 458.812C89.582 436.349 90.6615 413.502 92.1406 390.985C93.6089 368.633 95.929 346.291 102.142 324.693C104.709 315.769 107.891 307.112 111.288 298.477C116.59 285 121.975 271.865 122.376 257.155L141.326 296.625C141.037 298.134 140.146 299.587 139.501 300.982L136.267 308.545L130.703 323.93L129.485 322.36L125.631 336.75L125.31 336.856L125.156 336.186L124.881 336.56C124.557 336.992 124.721 336.871 124.414 337.042C123.311 340.257 124.04 344.346 122.8 347.382C123.04 348.95 123.347 349.632 124.518 350.713L123.611 361.158L122.777 384.024L122.701 399.622C122.696 401.264 123.031 403.748 122.601 405.3C122.226 405.872 121.858 406.406 121.737 407.093C121.117 410.612 121.649 415.179 121.731 418.773C121.794 421.493 121.531 424.795 122.097 427.442L122.217 427.965C122.273 428.989 122.116 430.956 122.543 431.829C122.667 436.202 123.128 440.956 124.176 445.213L125.007 451.14L125.812 451.423L126.579 450.487C127.134 453.304 128.232 456.778 128.293 459.616L130.118 469.069L133.327 481.206L134.986 485.667L137.351 492.057C137.735 493.087 138.455 494.641 138.431 495.728C138.418 496.331 137.679 497.781 137.438 498.421L134.211 506.458L134.094 506.688Z"/>
	<path fill="#4CDF17" transform="scale(0.52407 0.529627)" d="M130.118 469.069L133.327 481.206L133.02 482.051L132.37 481.9C130.834 478.434 129.585 474.637 128.867 470.916L129.848 472.313L130.118 469.069Z"/>
	<path fill="#89F86F" transform="scale(0.52407 0.529627)" d="M128.293 459.616L130.118 469.069L129.848 472.313L128.867 470.916C127.737 469.368 127.402 464.806 127.075 462.885L128.062 462.367L128.293 459.616Z"/>
	<path fill="#4CDF17" transform="scale(0.52407 0.529627)" d="M123.611 361.158L123.213 361.4C121.569 357.11 122.184 351.88 122.8 347.382C123.04 348.95 123.347 349.632 124.518 350.713L123.611 361.158Z"/>
	<path fill="#9BFE80" transform="scale(0.52407 0.529627)" d="M126.579 450.487C127.134 453.304 128.232 456.778 128.293 459.616L128.062 462.367L127.075 462.885L125.007 451.14L125.812 451.423L126.579 450.487Z"/>
	<path fill="#9BFE80" transform="scale(0.52407 0.529627)" d="M124.414 337.042C125.313 329.671 127.418 322.219 130.077 315.294C131.016 312.851 132.308 310.541 133.214 308.101C133.726 306.724 134.609 305.587 135.451 304.395C135.184 308.777 133.333 311.479 131.799 315.387C130.907 317.661 130.361 320.063 129.485 322.36L125.631 336.75L125.31 336.856L125.156 336.186L124.881 336.56C124.557 336.992 124.721 336.871 124.414 337.042Z"/>
	<path fill="#086301" transform="scale(0.52407 0.529627)" d="M134.094 506.688C134.085 505.699 134.215 503.669 134.816 502.875L135.188 502.5L135.191 501.75L135.562 501.191C134.389 501.028 134.468 501.032 133.725 500.101L133.501 501.001C133.721 501.707 133.77 502.27 133.776 503.008L133.275 503.201C132.751 499.059 131.751 495.77 130.145 491.938C129.547 490.512 128.585 489.002 128.312 487.502C129.361 488.471 130.092 490.271 130.583 491.607L131.787 494.498L132.375 496.312L132.897 495.709L133.638 495.549L133.616 494.414L135.36 492.881C135.99 493.389 136.303 493.475 137.064 493.689C136.811 492.687 136.437 491.104 135.642 490.42C134.948 489.823 134.414 489.445 134.015 488.579L133.5 487.312C133.271 486.819 133.038 486.418 132.878 485.89L132.75 485.438C132.433 484.491 132.456 485.049 132.585 484.127C132.948 484.57 133.137 484.813 133.265 485.389C133.417 486.072 133.715 486.122 134.25 486.559L134.986 485.667L137.351 492.057C137.735 493.087 138.455 494.641 138.431 495.728C138.418 496.331 137.679 497.781 137.438 498.421L134.211 506.458L134.094 506.688Z"/>
	<path fill="#086301" transform="scale(0.52407 0.529627)" d="M99.1283 459.938L99.6178 460.143C102.708 472.905 107.938 485.442 112.896 497.577C114.967 502.649 117.136 510.146 121.162 513.811L121.688 514.28L121.392 514.42L119.906 513.094C119.827 514.169 120.287 515.334 120.557 516.376C120.788 517.264 120.894 518.136 121.001 519.046L119.206 524.218L100.381 464.647L99.1283 459.938Z"/>
	<path fill="#1AAC16" transform="scale(0.52407 0.529627)" d="M363.829 128.512C340.637 130.273 317.316 135.185 295.6 143.533C284.524 147.79 273.775 153.187 262.509 156.888C252.748 160.095 242.476 160.352 232.736 163.663C239.685 157.797 247.811 153.071 255.668 148.527C284.678 131.75 316.783 120.935 349.875 115.856C368.246 113.036 387.225 111.925 405.765 113.555C422.85 115.057 440.41 117.945 456.338 124.549C463.105 127.354 469.742 130.957 476.313 134.225C486.002 139.043 496.259 144.541 504.339 151.81L487.745 146.281C474.482 142.062 461.223 138.414 447.562 135.724C441.037 134.44 434.275 133.066 427.632 132.714L427.988 133.007C430.582 134.805 435.319 135.466 438.412 136.293L455.195 141.052C467.525 144.956 479.955 149.878 491.243 156.218C497.74 159.867 503.735 164.272 509.687 168.736C521.742 177.776 532.789 187.639 543.15 198.582L553.787 209.812C556.144 212.271 559.959 215.244 561.132 218.438L561.001 219.375C559.929 220.015 559.116 219.763 557.93 219.46C553.304 218.277 548.726 216.987 544.01 216.19C536.049 214.844 527.861 214.537 519.8 214.747C517.225 214.814 514.356 214.637 511.885 215.438C511.018 216.298 510.48 217.006 509.879 218.066C509.589 218.576 509.723 218.369 509.268 218.867C507.592 214.237 506.028 209.357 503.648 205.033C502.486 202.92 500.668 201.484 499.225 199.603C496.641 196.235 494.583 192.439 491.74 189.264C488.681 185.847 484.937 183.46 481.098 181.028L474.309 177.594L462.387 172.894L427.601 162.56L409.688 159.467C396.107 157.711 381.614 157.658 368.004 159.156L346.761 162.515L346.725 162.18L345.938 161.816C344.665 162.872 341.809 162.748 340.219 163.219C339.673 163.38 339.198 163.659 338.625 163.783L335.062 164.625C334.053 164.965 332.921 165.341 331.875 165.562L331.125 165.658C330.543 166.092 329.958 166.207 329.25 166.312L328.5 166.408L328.125 166.688C327.229 167.042 325.698 167.612 324.75 167.625L324.228 167.106C326.225 166.071 329.268 165.316 331.491 164.797L347.555 160.838L347.468 160.461C347.934 159.836 351.172 159.472 352.125 159.267C364.345 156.63 376.881 157.012 389.223 155.66C391.556 152.969 394.598 150.906 396.866 148.116C397.866 146.886 398.858 145.931 399.405 144.411L400.172 142.23C401.171 138.537 400.596 132.562 398.573 129.234L398.189 128.625C397.821 127.916 397.753 127.558 397.167 126.949C386.133 125.653 374.81 126.842 363.88 128.452L363.829 128.512Z"/>
	<path fill="#4CDF17" transform="scale(0.52407 0.529627)" d="M427.601 162.56L427.875 162L431.332 162.645L439.312 164.625L439.688 164.25C438.096 163.856 436.501 163.283 434.887 163.027C434.144 162.909 433.799 162.632 433.126 162.374C432.027 161.954 429.368 162.119 428.812 161.146C441.121 163.508 453.266 167.562 464.961 172.023L464.625 172.691L462.387 172.894L427.601 162.56Z"/>
	<defs>
		<linearGradient id="gradient_5" gradientUnits="userSpaceOnUse" x1="510.57434" y1="496.87921" x2="553.57617" y2="386.03644">
			<stop offset="0" stop-color="#516E56"/>
			<stop offset="1" stop-color="#A5C3B4"/>
		</linearGradient>
	</defs>
	<path fill="url(#gradient_5)" transform="scale(0.52407 0.529627)" d="M583.358 394.555C585.613 394.462 586.118 394.287 587.906 395.927L597.691 405.212C599.881 407.356 602.041 409.741 604.546 411.51L604.068 471.703L603.55 472.454L568.337 472.436L565.901 471.99L565.755 471.671C564.241 468.99 559.661 466.162 557.257 464.133L545.098 453.405L539.1 447.999C537.403 446.399 530.264 438.568 528.733 438.264L528.239 438.188C528.165 437.475 528.095 436.903 527.829 436.229L527.618 435.746C524.319 431.418 519.208 428.559 515.538 424.519L492.39 424.546L491.929 436.295L491.861 436.63C491.043 441.086 491.557 446.462 491.54 451.045L491.438 480.736C491.101 479.503 491.237 478.089 491.25 476.812C490.215 476.282 489.489 476.55 488.435 476.847C487.122 477.216 485.979 477.304 484.621 477.255L484.198 477.564C483.497 477.987 483.054 477.982 482.275 478.036C481.477 478.092 482.228 478.028 481.192 478.206C480.535 478.318 480.15 478.222 479.516 478.095C478.323 477.857 477.086 477.855 475.857 477.624L475.084 477.556C473.77 477.422 472.463 476.721 471.242 476.231C470.588 475.968 470.228 475.505 469.736 475.03C469.325 474.633 468.944 474.511 468.47 474.238L467.905 473.861C466.816 473.154 465.964 472.55 464.615 472.606L464.327 472.285C462.925 470.983 458.199 470.846 456.205 470.454C455.385 470.292 455.755 470.302 454.954 470.435L454.802 474.827L454.459 475.117C454.203 474.015 454.408 472.425 454.402 471.267L454.412 462.186L454.466 426.433C456.605 425.519 458.63 423.616 460.483 422.197L471.049 414.096L495.375 395.961C495.999 395.453 496.123 395.208 496.933 394.962L555.444 394.56L583.358 394.555Z"/>
	<path fill="#EDF2F4" transform="scale(0.52407 0.529627)" d="M583.358 394.555C585.613 394.462 586.118 394.287 587.906 395.927L597.691 405.212C599.881 407.356 602.041 409.741 604.546 411.51L604.068 471.703C603.362 472.071 602.855 472.022 602.062 472.072L601.5 471.562L601.118 427.213C601.548 422.916 601.139 418.11 600.934 413.789C598.884 411.109 596.177 408.779 593.763 406.427C590.795 403.534 586.791 398.724 582.781 397.503L543.585 397.529L499.617 397.05C498.278 397.004 497.5 396.996 496.571 396L496.933 394.962L555.444 394.56L583.358 394.555Z"/>
	<defs>
		<linearGradient id="gradient_6" gradientUnits="userSpaceOnUse" x1="323.91043" y1="432.59241" x2="345.6955" y2="292.56717">
			<stop offset="0" stop-color="#617A64"/>
			<stop offset="1" stop-color="#7F9E8C"/>
		</linearGradient>
	</defs>
	<path fill="url(#gradient_6)" transform="scale(0.52407 0.529627)" d="M241.4 287.553L241.804 287.596L320.062 287.888L320.417 288.49C322.415 291.728 326.081 294.775 328.778 297.462L342.642 311.407L406.478 375.511L418.343 386.73C420.343 388.612 423.331 390.948 424.649 393.321C424.023 398.897 424.43 404.928 424.415 410.564C424.407 413.628 424.015 417.274 424.436 420.253L424.147 431.085L423.968 431.631C423.447 433.424 424.094 439.713 423.191 440.625L423.191 445.691L411.151 445.691C410.165 445.691 407.963 445.977 407.091 445.691C406.859 445.615 406.014 444.683 405.813 444.498C404.402 443.203 402.873 442.036 401.543 440.651C400.323 439.38 399.781 438.508 398.023 438.027L367.632 408.689L309.006 351.402L259.814 302.324L249.459 293.14C247.283 291.248 244.334 287.887 241.4 287.553Z"/>
	<defs>
		<linearGradient id="gradient_7" gradientUnits="userSpaceOnUse" x1="252.00594" y1="562.92175" x2="271.55426" y2="363.04568">
			<stop offset="0" stop-color="#515D4F"/>
			<stop offset="1" stop-color="#80A48E"/>
		</linearGradient>
	</defs>
	<path fill="url(#gradient_7)" transform="scale(0.52407 0.529627)" d="M162.729 421.814C167.346 418.017 172.509 414.671 177.408 411.239L205.408 391.783L228.994 374.942C234.291 371.161 239.65 367.088 245.386 364.014C248.549 362.32 251.707 361.262 255.344 361.586C259.992 362 263.983 364.532 267.598 367.312C275.608 373.472 282.78 381.143 290.104 388.09L327.502 423.269L357.383 451.122C360.865 454.423 365.127 457.713 368.204 461.319C368.294 461.424 368.769 462.047 368.787 462.099C369.124 463.073 369.001 465.059 369.062 466.125L369.474 479.602L370.116 530.273L370.161 542.241C370.17 543.885 369.875 546.372 370.522 547.873C368.35 548.484 365.803 548.285 363.552 548.307L351.803 548.34L311.914 548.249L311.793 481.851L311.684 456.61C311.687 454.083 311.194 450.079 311.875 447.709C312.345 446.077 313.789 444.394 314.79 443.055L319.937 436.032L298.367 436.063C296.925 436.038 294.357 436.334 293.022 435.952C289.643 434.984 282.298 426.612 279.343 423.784L264.595 409.975C263.029 408.527 260.269 405.382 258.353 404.734C257.927 404.59 256.933 404.711 256.446 404.703L256.439 403.959C256.147 403.945 255.847 403.847 255.562 403.917C255.192 404.007 254.393 404.747 254.061 405.003L248.777 409.312L216.943 433.867C213.987 436.241 210.796 438.299 207.991 440.864C207.22 441.568 207.156 442.209 206.62 442.947L206.173 443.33L206.314 442.312C204.173 445.456 205.03 483.715 205.007 490.57L204.848 501.146C204.774 502.854 204.831 504.727 204.044 506.288L157.166 537.944C155.413 539.815 152.629 541.245 150.466 542.655C146.181 546.326 140.676 549.658 135.847 552.634C137.701 550 140.209 547.653 142.196 545.062C146.227 539.807 149.716 533.862 153.001 528.116L161.952 512.285C164.633 507.06 166.964 500.874 170.425 496.155C171.225 493.64 173.397 490.713 174.798 488.426L189.583 466.12L169.76 467.379C169.239 458.433 169.561 449.305 169.552 440.338C169.55 438.296 170.04 434.589 169.545 432.782C169.319 431.954 168.215 430.678 167.643 429.981C165.36 427.2 162.609 424.883 160.12 422.292C161.331 422.348 161.735 422.556 162.729 421.814Z"/>
	<path fill="#EDF2F4" transform="scale(0.52407 0.529627)" d="M157.166 537.944L156.646 537.575L156.726 536.998C161.725 532.521 199.5 505.456 203.426 505.481L204.044 506.288L157.166 537.944Z"/>
	<path fill="#EDF2F4" transform="scale(0.52407 0.529627)" d="M454.819 364.108L454.842 284.996L454.548 257.072C454.509 253.994 453.704 248.317 454.768 245.527L459.635 233.301L620.473 233.308C621.329 234.987 621.339 238.043 621.625 240.009C624.79 261.762 624.77 283.841 624.828 305.77L609.451 312.759L599.943 317.457C598.662 318.091 596.588 319.219 595.154 319.083L594.708 318.978C592.42 317.553 579.992 318.591 576.487 318.639L537.921 319.16L526.044 319.745C524.777 319.779 524.46 319.983 523.489 319.061C517.602 319.026 511.394 318.766 505.565 319.557L508.69 322.116C504.537 333.408 494.194 339.38 484.503 345.421L466.3 356.559C463.852 358.066 461.379 359.55 459.042 361.227C457.939 362.018 456.591 363.416 455.4 363.966L454.819 364.108Z"/>
	<path transform="scale(0.52407 0.529627)" d="M505.565 319.557C504.77 319.35 504.071 319.217 503.25 319.177L493.931 328.55L493.815 286.801L573.755 287.268C566.908 292.638 559.328 297.015 551.862 301.468L536.435 311.179L523.489 319.061C517.602 319.026 511.394 318.766 505.565 319.557Z"/>
	<path fill="#EDF2F4" transform="scale(0.52407 0.529627)" d="M159.68 324.803L160.05 286.541L160.123 276.974C160.126 275.517 160.291 273.765 159.993 272.337C159.384 269.416 156.296 266.029 154.517 263.664L146.348 252.67C145.901 252.072 144.374 250.528 144.182 249.884C144.007 249.299 147.848 235.116 148.242 233.55L282.911 232.926L283.16 233.316C285.622 237.099 288.834 240.484 291.873 243.811L307.847 260.549L340.835 295.133L360.824 315.946L403.843 359.734L436.154 395.367C436.798 396.048 437.589 396.677 437.468 397.661C436.663 401.358 437.135 405.911 437.133 409.729L437.127 433.413C437.118 436.194 437.56 439.711 436.669 442.312L436.308 442.312C436.219 439.867 436.321 437.185 435.778 434.802L435.665 432.211L435.626 411.599C435.614 408.125 435.948 404.336 435.367 400.93C432.185 399.643 430.068 396.59 426.842 395.42L424.649 393.321C423.331 390.948 420.343 388.612 418.343 386.73L406.478 375.511L342.642 311.407L328.778 297.462C326.081 294.775 322.415 291.728 320.417 288.49L320.062 287.888L241.804 287.596L241.4 287.553L208.041 288.014L373.402 455.201L373.36 455.681L373.086 522.177C372.218 528.594 372.717 535.728 372.659 542.244C372.642 544.158 372.989 546.884 372.375 548.678C371.61 548.518 371.167 548.312 370.522 547.873C369.875 546.372 370.17 543.885 370.161 542.241L370.116 530.273L369.474 479.602L369.062 466.125C369.001 465.059 369.124 463.073 368.787 462.099C368.769 462.047 368.294 461.424 368.204 461.319C365.127 457.713 360.865 454.423 357.383 451.122L327.502 423.269L290.104 388.09C282.78 381.143 275.608 373.472 267.598 367.312C263.983 364.532 259.992 362 255.344 361.586C251.707 361.262 248.549 362.32 245.386 364.014C239.65 367.088 234.291 371.161 228.994 374.942L205.408 391.783L177.408 411.239C172.509 414.671 167.346 418.017 162.729 421.814C161.735 422.556 161.331 422.348 160.12 422.292C158.821 420.406 159.385 407.33 159.353 404.435L159.047 366.272L159.318 346.763C158.952 344.759 159.281 342.158 159.305 340.099L159.68 324.803Z"/>
	<path fill="#C3CAC8" transform="scale(0.52407 0.529627)" d="M159.68 324.803L233.646 324.972C236.624 325.073 238.743 327.297 240.898 329.102L248.645 335.726C251.07 337.922 253.63 340.524 256.552 342.012C252.183 344.534 248.422 347.288 244.498 350.44C242.388 348.849 233.955 349.67 231 349.691L230.625 350.062L162.164 350.368C161.522 350.308 161.038 350.243 160.39 350.334L159.988 350.42C159.323 349.335 159.399 348.001 159.318 346.763C158.952 344.759 159.281 342.158 159.305 340.099L159.68 324.803Z"/>
	<defs>
		<linearGradient id="gradient_8" gradientUnits="userSpaceOnUse" x1="202.39368" y1="420.35968" x2="201.10596" y2="349.86951">
			<stop offset="0" stop-color="#81978B"/>
			<stop offset="1" stop-color="#B6C1BD"/>
		</linearGradient>
	</defs>
	<path fill="url(#gradient_8)" transform="scale(0.52407 0.529627)" d="M160.12 422.292C158.821 420.406 159.385 407.33 159.353 404.435L159.047 366.272L159.318 346.763C159.399 348.001 159.323 349.335 159.988 350.42L160.39 350.334C161.038 350.243 161.522 350.308 162.164 350.368L230.625 350.062L231 349.691C233.955 349.67 242.388 348.849 244.498 350.44L204.895 382.832L184.477 399.006C179.419 403.019 174.108 406.905 169.615 411.562C166.711 414.573 164.771 418.097 162.188 421.32L162.729 421.814C161.735 422.556 161.331 422.348 160.12 422.292Z"/>
</svg>
