<?xml version="1.0" encoding="utf-8" ?>
<svg xmlns="http://www.w3.org/2000/svg" xmlns:xlink="http://www.w3.org/1999/xlink" width="103" height="102">
	<path transform="scale(0.134375 0.133885)" d="M-0 764.341L0 -0L768 0L768 764.568L768 768L-0 768L0 764.341Z"/>
	<path fill="#B7B9B8" transform="scale(0.134375 0.133885)" d="M600.57 495.7L603.477 495.64C605.039 497.205 612.995 504.469 613.362 505.875C613.48 506.329 613.428 506.81 613.46 507.278L600.57 495.7Z"/>
	<path fill="#63E93E" transform="scale(0.134375 0.133885)" d="M533.564 146.014C537.092 148.113 541.533 150.344 544.603 153.051L543.411 155.117C542.407 154.769 541.206 153.732 540.265 153.135L532.507 148.262L532.875 147.33L533.344 147.939C534.051 148.472 534.044 148.302 534.752 148.127L534.939 147.469L533.102 146.509L533.564 146.014Z"/>
	<defs>
		<linearGradient id="gradient_0" gradientUnits="userSpaceOnUse" x1="520.02454" y1="576.82751" x2="527.00415" y2="573.65948">
			<stop offset="0" stop-color="#BEC4C2"/>
			<stop offset="1" stop-color="#E4E3E5"/>
		</linearGradient>
	</defs>
	<path fill="url(#gradient_0)" transform="scale(0.134375 0.133885)" d="M519.089 580.312C518.587 579.714 518.581 579.597 518.521 578.835C519.669 576.203 524.596 573.13 526.833 570.998L527.812 572.193L530.422 572.326L519.089 580.312Z"/>
	<path fill="#626262" transform="scale(0.134375 0.133885)" d="M404.302 127.043L429.201 129.52C428.725 130.354 428.2 130.387 427.315 130.653L400.446 128.243C401.611 127.701 403.35 127.894 404.625 127.875L404.814 127.594C403.627 127.596 402.574 127.571 401.413 127.306L404.302 127.043Z"/>
	<path fill="#0D7116" transform="scale(0.134375 0.133885)" d="M108.785 296.896C109.653 296.567 109.655 296.642 110.539 296.968C109.829 299.705 109.208 302.529 108.284 305.2C107.184 308.379 105.309 312.043 105.214 315.436C105.922 314.047 106.606 312.164 107.649 311.012L108.28 311.812L100.291 323.161L108.785 296.896Z"/>
	<path fill="#8DAE94" transform="scale(0.134375 0.133885)" d="M489.519 598.684L489.61 597.982C498.323 589.815 508.883 583.561 518.17 576.016L523.891 571.143C525.723 569.422 527.422 567.226 529.823 566.316C529.019 568.062 527.983 569.477 526.833 570.998C524.596 573.13 519.669 576.203 518.521 578.835C518.581 579.597 518.587 579.714 519.089 580.312C515.452 583.273 511.134 585.671 507.14 588.131L489.519 598.684Z"/>
	<path fill="#EDF2F4" transform="scale(0.134375 0.133885)" d="M642.276 455.991L642.641 456.049C643.732 458.211 642.725 461.947 642.364 464.313C641.14 472.329 639.758 480.829 637.299 488.559C636.905 489.797 636.31 490.918 635.669 492.043L633.952 495.782C633.393 493.906 633.732 491.41 633.91 489.469C634.787 479.929 638.08 470.739 640.002 461.374C640.173 459.761 639.447 459.305 640.381 457.821L642.276 455.991Z"/>
	<path fill="#1AAC16" transform="scale(0.134375 0.133885)" d="M429.201 129.52L435.448 130.253C440.989 131.709 446.824 131.923 452.325 133.687L452.925 133.913C457.531 135.604 462.552 136.524 467.25 138.008C478.651 141.609 489.582 146.164 500.319 151.382C503.536 152.945 507.411 154.505 510.321 156.558L509.641 157.166C507.373 156.397 505.047 154.794 502.875 153.72L490.233 148.108C469.635 139.763 449.276 134.049 427.315 130.653C428.2 130.387 428.725 130.354 429.201 129.52Z"/>
	<path fill="#8DAE94" transform="scale(0.134375 0.133885)" d="M185.311 565.382L171.852 565.839C170.053 565.892 167.785 566.168 166.061 565.636C164.646 565.2 163.13 563.539 162.037 562.554C170.497 559.768 179.419 559.588 188.062 557.61C189.006 558.075 188.84 558.267 189.191 559.208C188.677 560.068 188.484 560.715 187.582 561.185C186.331 561.837 184.917 563.265 184.366 564.562L185.311 565.382Z"/>
	<path transform="scale(0.134375 0.133885)" d="M396.381 126.411L394.984 125.625L395.438 124.818C400.63 123.765 406.673 123.913 411.978 124.159C413.436 124.374 427.721 126.563 428.114 126.989L446.381 130.652L446.715 130.815C448.547 131.6 450.798 131.533 452.438 132.708C452.495 133.432 452.556 133.109 452.325 133.687C446.824 131.923 440.989 131.709 435.448 130.253L429.201 129.52L404.302 127.043L396.381 126.411Z"/>
	<path fill="#1AAC16" transform="scale(0.134375 0.133885)" d="M157.669 539.896L157.862 540.498C158.239 541.799 158.088 543.346 158.062 544.691C158.607 544.194 158.614 544.031 159.375 543.938L159.75 543.658C160.191 543.365 160.489 543.289 160.986 543.166L160.984 543.844C151.558 549.47 141.11 553.241 131.599 558.861C119.202 566.186 107.632 575.447 97.4343 585.601C93.9694 589.051 91.1139 593.03 87.4982 596.325C90.4826 589.263 95.162 584.255 100.666 579.08C111.707 568.698 125.255 560.024 138.764 553.211L151.081 547.375C152.863 546.531 155.184 545.683 156.683 544.42C157.786 543.492 157.569 541.253 157.669 539.896Z"/>
	<path fill="#EDF2F4" transform="scale(0.134375 0.133885)" d="M509.641 157.166L510.321 156.558L526.856 165.445C537.785 171.905 548.266 179.807 557.677 188.322C561.682 191.946 565.821 195.643 569.291 199.792C572.187 202.349 574.763 205.488 577.382 208.337L589.678 221.975L589.125 222.607C586.284 221.053 583.741 217.708 581.513 215.363L567.489 200.533C550.594 183.501 530.287 169.219 509.641 157.166Z"/>
	<path fill="#0D7116" transform="scale(0.134375 0.133885)" d="M360.922 121.809L400.874 121.729C403.383 122.879 405.815 122.597 408.433 123.149L411.978 124.159C406.673 123.913 400.63 123.765 395.438 124.818L394.984 125.625L396.381 126.411L404.302 127.043L401.413 127.306C402.574 127.571 403.627 127.596 404.814 127.594L404.625 127.875C403.35 127.894 401.611 127.701 400.446 128.243C398.284 128.702 394.975 128.211 392.696 128.177L362.935 128.179C362.369 128.036 361.928 127.933 361.435 127.602L361.125 127.37C359.739 127.843 358.097 127.972 356.636 127.829L356.25 127.783L352.125 127.875C350.984 128.636 349.816 127.969 348.562 128.25C346.887 128.626 345.727 128.614 343.969 128.531C346.85 128.445 350.042 128.077 352.875 127.647C354.994 127.326 356.971 127.306 359.118 127.262C359.53 127.253 360.737 127.368 361.085 127.222C361.531 127.035 362.222 126.273 362.623 125.939L368.984 125.306C363.161 124.35 357.604 123.757 351.705 123.727C352.84 123.368 355.805 123.649 356.529 123.192C356.609 123.142 357.529 122.17 357.587 122.143C358.18 121.861 360.192 121.882 360.922 121.809Z"/>
	<path fill="#328539" transform="scale(0.134375 0.133885)" d="M396.381 126.411L404.302 127.043L401.413 127.306C402.574 127.571 403.627 127.596 404.814 127.594L404.625 127.875C403.35 127.894 401.611 127.701 400.446 128.243C398.284 128.702 394.975 128.211 392.696 128.177L389.062 127.698L389.354 127.115C391.57 126.324 394.048 126.473 396.381 126.411Z"/>
	<path fill="#EDF2F4" transform="scale(0.134375 0.133885)" d="M166.788 353.754L166.96 344.719L217.63 398.775L227.238 408.836C228.236 409.974 229.378 412.251 230.438 413.142C230.696 413.359 231.062 413.397 231.375 413.525C232.078 413.015 232.504 412.266 232.607 411.391C232.659 410.957 232.628 410.885 232.574 410.503L232.811 410.034C233.317 409.099 233.658 408.467 234.691 408.162L234.289 441.935L233.871 448.34C231.192 439.74 231.294 430.091 230.628 421.164C230.477 419.142 230.638 415.379 229.887 413.567C228.987 411.392 225.496 408.794 223.8 407.088C218.508 401.766 213.397 396.179 207.796 391.181C207.472 390.382 206.291 389.49 205.675 388.872L200.232 383.422L171.039 354.32C170.45 353.395 169.846 352.618 169.122 351.795L168.401 352.155L168.158 352.644C167.898 353.206 167.81 353.585 167.741 354.188L167.079 354.479L166.788 353.754Z"/>
	<path fill="#8DAE94" transform="scale(0.134375 0.133885)" d="M276.01 361.682C272.404 366.394 268.101 370.837 264.251 375.379C257.388 383.473 250.909 391.785 243.598 399.509C241.409 401.821 238.77 405.082 235.875 406.414L235.312 405.966C235.36 404.041 236.053 402.677 237.056 401.06C239.688 396.819 243.404 392.875 246.504 388.932L272.519 355.839C273.924 357.388 275.636 358.696 277.228 360.05L276.01 361.682Z"/>
	<defs>
		<linearGradient id="gradient_1" gradientUnits="userSpaceOnUse" x1="471.65924" y1="117.52081" x2="468.1026" y2="130.56117">
			<stop offset="0" stop-color="#0B661B"/>
			<stop offset="1" stop-color="#4AD54D"/>
		</linearGradient>
	</defs>
	<path fill="url(#gradient_1)" transform="scale(0.134375 0.133885)" d="M403.165 107.245C437.777 107.455 471.773 115.376 503.245 129.798C508.984 132.428 515.133 135.129 520.486 138.456L520.495 138.546C524.854 140.571 529.698 143.171 533.564 146.014L533.102 146.509L534.939 147.469L534.752 148.127C534.044 148.302 534.051 148.472 533.344 147.939L532.875 147.33L532.507 148.262L524.233 143.255L507.004 134.194C483.74 123.059 458.974 115.376 433.5 111.465L416.062 109.645C412.073 109.404 407.712 109.616 403.805 108.796L403.469 108.72L403.165 107.245Z"/>
	<path fill="#63E93E" transform="scale(0.134375 0.133885)" d="M98.0274 406.467L116.105 406.537C119.416 406.537 122.864 406.334 126.153 406.72C120.978 408.052 115.546 408.325 110.217 408.233L116.61 431.852C120.281 443.628 124.768 455.107 129.678 466.414C131.893 471.515 134.018 477.031 136.892 481.789L134.568 485.478L125.74 466.438C120.553 454.434 116.187 442.172 112.515 429.624C110.451 422.573 108.349 415.32 107.824 407.965L88.9783 407.979L87.8232 407.513L87.9175 407.062L98.0274 406.467Z"/>
	<path fill="#EDF2F4" transform="scale(0.134375 0.133885)" d="M544.603 153.051C557.525 161.598 570.005 170.711 581.386 181.256L617.307 217.421C617.756 218.58 618.253 219.424 617.749 220.688C617.48 221.361 616.817 222.015 616.238 222.427C615.676 222.398 614.946 222.39 614.42 222.179C612.872 221.56 611.183 218.867 610.046 217.583L593.722 198.671L583.446 187.621C571.422 175.579 557.676 164.404 543.411 155.117L544.603 153.051Z"/>
	<path fill="#626262" transform="scale(0.134375 0.133885)" d="M160.758 221.334C158.884 222.469 124 222.361 119.055 222.402L116.142 194.097C116.806 194.38 123.924 205.518 124.995 206.986C127.669 210.652 130.718 215.024 134.155 217.951C139.955 216.522 156.369 219.05 160.037 216.346L160.356 216.102C161.164 216.861 161.898 217.622 162.848 218.202L160.758 221.334Z"/>
	<path fill="#EDF2F4" transform="scale(0.134375 0.133885)" d="M126.623 260.868L135.286 269.191C132.167 272.235 129.588 275.821 126.896 279.238C123.177 283.96 119.186 288.705 116.621 294.188C115.953 295.614 115.097 297.326 114.892 298.895C113.841 301.644 112.713 304.323 111.233 306.874C110.298 308.485 108.989 310.112 108.28 311.812L107.649 311.012C106.606 312.164 105.922 314.047 105.214 315.436C105.309 312.043 107.184 308.379 108.284 305.2C109.208 302.529 109.829 299.705 110.539 296.968C110.795 296.678 110.856 295.38 110.944 294.897L112.258 289.262C113.648 284.394 115.531 280.577 117.876 276.134C118.637 274.692 119.243 273.055 120.112 271.688C120.824 270.567 121.155 270.032 122.416 269.678C122.781 269.451 123.182 268.246 123.373 267.836L126.623 260.868Z"/>
	<path transform="scale(0.134375 0.133885)" d="M110.539 296.968C110.795 296.678 110.856 295.38 110.944 294.897L112.258 289.262C113.648 284.394 115.531 280.577 117.876 276.134C118.637 274.692 119.243 273.055 120.112 271.688C120.824 270.567 121.155 270.032 122.416 269.678C119.898 275.681 117.406 281.635 115.442 287.85C112.984 295.634 111.302 303.645 107.649 311.012C106.606 312.164 105.922 314.047 105.214 315.436C105.309 312.043 107.184 308.379 108.284 305.2C109.208 302.529 109.829 299.705 110.539 296.968Z"/>
	<path fill="#626262" transform="scale(0.134375 0.133885)" d="M617.307 217.421C621.463 216.506 626.294 216.846 630.558 216.746C631.677 216.72 633.984 216.957 634.911 216.424C635.153 216.285 635.8 215.096 635.982 214.827L640.217 208.769L657.039 188.472L645.766 223.659L645.209 223.557C638.663 222.415 631.538 222.724 624.884 222.656C622.058 222.627 619.036 222.284 616.238 222.427C616.817 222.015 617.48 221.361 617.749 220.688C618.253 219.424 617.756 218.58 617.307 217.421Z"/>
	<path transform="scale(0.134375 0.133885)" d="M351.705 123.727C357.604 123.757 363.161 124.35 368.984 125.306L362.623 125.939C362.222 126.273 361.531 127.035 361.085 127.222C360.737 127.368 359.53 127.253 359.118 127.262C356.971 127.306 354.994 127.326 352.875 127.647C350.042 128.077 346.85 128.445 343.969 128.531C345.727 128.614 346.887 128.626 348.562 128.25C349.816 127.969 350.984 128.636 352.125 127.875L356.25 127.783L356.636 127.829C358.097 127.972 359.739 127.843 361.125 127.37L361.435 127.602C361.928 127.933 362.369 128.036 362.935 128.179C334.324 128.756 305.639 135.973 279.5 147.506L248.53 162.616L247.888 161.728L242.831 164.21C248.502 158.915 255.404 155.26 262.161 151.543C273.404 145.357 285.72 139.537 297.883 135.42C311.43 130.834 324.863 128.185 338.936 125.883L351.705 123.727Z"/>
	<path fill="#2B693B" transform="scale(0.134375 0.133885)" d="M247.888 161.728L247.915 161.672L274.615 148.247C284.685 143.514 294.993 139.053 305.625 135.749C316.104 132.492 327.672 129.784 338.557 128.31L348 127.433C352.89 126.91 357.7 126.191 362.623 125.939C362.222 126.273 361.531 127.035 361.085 127.222C360.737 127.368 359.53 127.253 359.118 127.262C356.971 127.306 354.994 127.326 352.875 127.647C350.042 128.077 346.85 128.445 343.969 128.531C345.727 128.614 346.887 128.626 348.562 128.25C349.816 127.969 350.984 128.636 352.125 127.875L356.25 127.783L356.636 127.829C358.097 127.972 359.739 127.843 361.125 127.37L361.435 127.602C361.928 127.933 362.369 128.036 362.935 128.179C334.324 128.756 305.639 135.973 279.5 147.506L248.53 162.616L247.888 161.728Z"/>
	<path fill="#EDF2F4" transform="scale(0.134375 0.133885)" d="M189.191 559.208L189.473 559.607C192.416 563.597 196.958 567.032 200.742 570.242C212.066 579.852 224.083 588.658 236.277 597.127L263.969 615.299C271.837 619.954 279.963 623.694 288.015 627.938L287.812 628.318C280.614 626.107 273.471 622.449 266.681 619.197C246.73 609.643 227.721 599.181 210.258 585.502L193.149 571.42C190.766 569.462 188.086 566.699 185.311 565.382L184.366 564.562C184.917 563.265 186.331 561.837 187.582 561.185C188.484 560.715 188.677 560.068 189.191 559.208Z"/>
	<path fill="#EDF2F4" transform="scale(0.134375 0.133885)" d="M460.393 564.064L472.203 559.572C475.118 558.32 478.305 556.55 481.418 555.936C483.11 555.602 485.204 555.818 486.93 555.815L497.735 555.846L547.602 556.879C542.196 562.583 536.697 567.572 530.422 572.326L527.812 572.193L526.833 570.998C527.983 569.477 529.019 568.062 529.823 566.316L533.433 562.155C516.664 564.127 499.668 563.572 482.809 563.778L468.883 564.019C466.064 564.095 463.201 564.353 460.393 564.064Z"/>
	<path fill="#EDF2F4" transform="scale(0.134375 0.133885)" d="M162.848 218.202L163.994 216.784C167.906 212.19 172.762 208.38 177.328 204.471C183.649 199.06 189.888 193.098 197.438 189.421C202.441 186.984 208.056 185.838 213.283 183.96C216.093 182.95 219.474 180.601 222.359 180.389C213.859 186.437 206.163 193.46 198.933 200.959C193.045 207.065 187.124 213.765 183.102 221.271L160.758 221.334L162.848 218.202Z"/>
	<path fill="#EDF2F4" transform="scale(0.134375 0.133885)" d="M364.131 112.668L401.944 112.411C407.36 112.752 413.019 112.905 418.376 113.764C421.705 114.298 424.934 115.392 428.257 115.991C429.405 116.14 430.506 116.292 431.623 116.598C431.282 116.817 430.474 117.49 430.125 117.559C426.855 118.205 423.334 116.929 419.988 118.04C417.186 118.97 415.044 120.305 412.427 121.528C411.042 122.176 409.745 122.275 408.433 123.149C405.815 122.597 403.383 122.879 400.874 121.729L360.922 121.809C358.851 121.508 356.617 121.563 354.519 121.484L343.351 119.652C341.935 119.388 340.397 119.409 339.054 118.875L339.04 118.125C340.743 116.164 344.611 115.593 347.058 114.966L364.131 112.668Z"/>
	<path fill="#63E93E" transform="scale(0.134375 0.133885)" d="M428.257 115.991C429.405 116.14 430.506 116.292 431.623 116.598C431.282 116.817 430.474 117.49 430.125 117.559C426.855 118.205 423.334 116.929 419.988 118.04C417.186 118.97 415.044 120.305 412.427 121.528C411.042 122.176 409.745 122.275 408.433 123.149C405.815 122.597 403.383 122.879 400.874 121.729C406.384 120.892 411.076 118.64 416.409 117.476L417 117.352C420.729 116.505 424.77 117.819 428.388 116.707L428.257 115.991Z"/>
	<path fill="#1AAC16" transform="scale(0.134375 0.133885)" d="M277.228 360.05C287.827 369.158 296.95 380.374 306.384 390.678L342.487 429.186L382.514 471.611L425.757 519.346C433.487 527.922 442.056 535.852 449.439 544.716C443.229 542.049 438.616 537.084 433.911 532.35L417.228 514.449L391.474 485.627L358.408 450.551L311.328 399.947L288.739 375.629C284.522 370.991 280.578 365.979 276.01 361.682L277.228 360.05Z"/>
	<defs>
		<linearGradient id="gradient_2" gradientUnits="userSpaceOnUse" x1="700.94946" y1="402.35043" x2="675.51184" y2="396.83914">
			<stop offset="0" stop-color="#1B201C"/>
			<stop offset="1" stop-color="#303E34"/>
		</linearGradient>
	</defs>
	<path fill="url(#gradient_2)" transform="scale(0.134375 0.133885)" d="M673.291 404.13L673.457 404.829C673.666 405.657 673.501 405.375 673.875 405.84C674.353 405.508 674.437 405.383 674.686 404.849C674.959 404.263 675.127 404.058 675.533 403.592L704.771 362.25L707.413 358.5L707.81 357.938C708.361 357.134 708.729 356.294 709.309 355.5C710.017 354.53 710.476 353.468 711.184 352.5C711.711 351.779 712.115 351.052 712.498 350.248L713.066 349.875C713.063 350.667 713.159 350.671 712.691 351.375C712.688 352.222 712.741 352.11 712.316 352.875L711.587 354.904L710.627 357.377L710.066 358.688L709.877 359.252L708.777 361.877C708.537 362.517 708.228 363.098 708.008 363.752C707.015 366.712 705.279 369.791 703.932 372.612C699.775 381.321 695.179 391.369 688.925 398.772C687.498 400.46 685.884 402.132 684.158 403.516C683.354 404.16 681.414 405.055 680.866 405.774C680.857 405.786 681.05 407.684 681.062 407.812C681.353 410.979 681.445 414.247 681.063 417.409C680.526 421.861 679.022 425.421 676.49 429.063C674.48 431.956 673.784 437.497 673.214 441.002L669.416 460.312L668.781 463.431L668.062 467.059C667.886 466.22 667.884 465.823 668.062 465L668.15 464.514C668.4 463.264 668.036 465.079 668.531 463.406C668.801 462.496 668.666 461.66 669 460.688L669.188 459.75L669.65 457.389C669.9 456.139 669.536 457.954 670.031 456.281C670.301 455.371 670.166 454.535 670.5 453.562L670.688 452.625L670.787 452.174C670.916 451.532 670.86 451.788 670.916 451.061C670.993 450.06 670.887 450.858 671.25 449.812C671.421 449.319 671.437 448.826 671.434 448.312L670.875 448.684C670.278 448.582 669.924 448.375 669.375 448.217C667.777 447.757 668.244 448.564 666.941 447L666.95 446.65C666.967 445.774 666.93 445.568 666.658 444.75L666.562 443.059C666.312 443.814 666.431 444.169 666.559 444.938L666 445.312L666.184 446.062L665.625 446.625L665.689 447.129C665.746 447.833 665.629 448.04 665.434 448.688C664.971 450.222 664.922 451.824 664.5 453.375C664.393 453.769 664.175 454.498 664.125 454.875L664.217 456L663.934 456.562C663.483 457.771 663.295 459.056 663.559 460.312L663.287 460.712C662.932 461.309 662.913 461.679 662.878 462.351L662.166 463.138C662.259 460.744 662.882 458.26 663.323 455.902L665.824 443.286L673.291 404.13Z"/>
	<defs>
		<linearGradient id="gradient_3" gradientUnits="userSpaceOnUse" x1="363.71368" y1="327.06592" x2="394.53632" y2="259.80908">
			<stop offset="0" stop-color="#3EDE5A"/>
			<stop offset="1" stop-color="#65FCDE"/>
		</linearGradient>
	</defs>
	<path fill="url(#gradient_3)" transform="scale(0.134375 0.133885)" d="M408.734 326.312L408.613 326.287L370.775 288.734L336.695 255.625C328.876 247.871 320.974 240.06 313.897 231.614C311.182 228.374 307.613 224.39 306.955 220.125L307.312 219.748L409.755 322.596L420.58 333.662C422.31 335.459 424.339 337.268 425.834 339.259L440.045 354.002C444.256 358.427 449.338 362.951 452.418 368.223C444.719 363.137 437.966 355.228 431.463 348.681C428.766 345.967 425.488 343.202 423.158 340.188L408.734 326.312Z"/>
	<path fill="#013A08" transform="scale(0.134375 0.133885)" d="M108.785 296.896C108.71 295.513 109.474 294.145 109.312 292.552C108.087 293.498 106.84 297.631 106.235 299.156L99.4561 317.014C97.7246 322.313 96.4296 327.882 94.2679 333.018C92.5351 337.135 90.3795 341.117 88.3193 345.078C87.7493 346.175 86.7334 347.229 86.4412 348.375C86.6346 349.059 86.6273 349.369 86.625 350.062C86.0555 350.52 86.1147 350.55 85.875 351.188C84.7555 347.895 85.642 341.878 86.0234 338.38C86.5773 333.299 87.0615 328.6 88.277 323.589C91.0237 312.266 96.0038 301.624 100.688 291.02L108.642 272.968L113.812 263.099C115.609 259.397 117.051 255.621 118.462 251.763C121.075 254.864 124.417 257.455 126.623 260.868L123.373 267.836C123.182 268.246 122.781 269.451 122.416 269.678C121.155 270.032 120.824 270.567 120.112 271.688C119.243 273.055 118.637 274.692 117.876 276.134C115.531 280.577 113.648 284.394 112.258 289.262L110.944 294.897C110.856 295.38 110.795 296.678 110.539 296.968C109.655 296.642 109.653 296.567 108.785 296.896Z"/>
	<path fill="#8DAE94" transform="scale(0.134375 0.133885)" d="M135.885 330.402L146.992 299.179L146.885 299.8L143.538 329.529L133.932 388.634L114.454 388.734L130.587 343.513C132.231 339.293 133.656 334.329 135.885 330.402Z"/>
	<defs>
		<linearGradient id="gradient_4" gradientUnits="userSpaceOnUse" x1="110.55811" y1="454.28671" x2="95.738754" y2="461.36307">
			<stop offset="0" stop-color="#031303"/>
			<stop offset="1" stop-color="#004609"/>
		</linearGradient>
	</defs>
	<path fill="url(#gradient_4)" transform="scale(0.134375 0.133885)" d="M128.502 510.154C128.006 510.175 127.534 510.358 127.078 510.544L126.75 510.684C122.509 510.196 119.222 508 116.65 504.647C110.571 496.72 108.888 486.405 105.047 477.375L98.3003 462.159L90.0529 441.562L82.3642 424.056L78.1437 414C77.4567 412.426 76.8982 410.75 75.7989 409.412C74.7561 408.142 74.7184 408.167 73.1609 407.823L72.9413 407.438L87.375 406.5C88.7688 405.571 94.085 406.125 96 406.125L96.5625 405.75C99.089 405.739 102.607 405.295 105 405.938C102.666 405.965 100.292 405.842 98.0274 406.467L87.9175 407.062L87.8232 407.513L88.9783 407.979L90.1448 408.71L90.1557 409.166C90.3582 410.647 91.6619 412.295 92.2623 413.708C94.4628 418.884 97.3769 425.826 97.6688 431.44C97.6953 431.95 97.8596 432.272 98.0012 432.75L98.1692 433.584C99.5432 440.467 103.228 447.37 105.421 454.123C106.349 456.981 107.626 459.877 108.392 462.748L109.149 464.965C109.49 466.113 109.121 465.026 109.691 466.125L109.907 466.873L110.992 469.852L112.139 472.873L113.907 477.175C114.253 477.867 114.457 478.546 114.752 479.248L115.033 479.8C115.397 480.526 115.251 480.149 115.416 480.772C115.571 481.355 116.012 482.009 116.252 482.623C116.466 483.171 116.764 483.563 116.909 484.147C117.052 484.722 117.513 485.386 117.752 485.998C117.965 486.545 118.264 486.941 118.411 487.522C118.558 488.099 119.013 488.761 119.252 489.373C119.466 489.921 119.764 490.313 119.909 490.897C120.055 491.486 120.515 492.118 120.752 492.748L124.316 500.625L126.308 504.585C126.705 505.379 126.902 506.187 127.324 507C127.862 508.037 128.247 509.013 128.502 510.154Z"/>
	<path fill="#1AAC16" transform="scale(0.134375 0.133885)" d="M165.352 581.853C160.305 577.208 156.197 572.803 152.231 567.189L152.283 566.796L160.366 563.065L160.633 563.455C164.127 568.369 169.346 572.61 173.888 576.562C185.452 586.625 197.947 595.406 210.611 604.013C220.895 611.002 231.428 618.085 242.413 623.933C257.204 631.806 272.703 638.437 288.353 644.385L288.174 644.986L287.101 644.644L286.738 644.884L287.062 645.75C287.81 645.875 288.022 645.756 288.544 646.343L288.331 646.605C278.636 644.594 268.862 641.093 259.547 637.75L238.504 630.219C236.221 629.413 233.8 627.933 231.395 627.848C230.406 627.714 228.368 626.275 227.415 625.769C214.575 618.952 202.233 610.533 190.513 601.96C188.868 600.757 185.534 597.307 183.591 597.144C182.225 596.657 180.151 594.424 178.964 593.417L165.352 581.853Z"/>
	<path fill="#EDF2F4" transform="scale(0.134375 0.133885)" d="M370.532 637.563L340.03 617.036C343.215 617.864 346.406 618.72 349.688 619.056C358.292 619.934 367.203 619.41 375.834 619.07C388.801 618.559 401.728 617.834 414.573 615.902C422.572 614.698 430.718 613.134 438.199 609.974C431.873 618.113 423.129 624.61 415.595 631.583C413.641 633.39 411.81 635.949 409.671 637.454C406.886 637.545 403.916 637.428 401.165 637.808C399.691 637.425 397.074 637.803 395.492 637.845L379.277 638.2C376.432 638.225 373.233 638.593 370.532 637.563Z"/>
	<path fill="#013A08" transform="scale(0.134375 0.133885)" d="M88.9783 407.979L107.824 407.965C108.349 415.32 110.451 422.573 112.515 429.624C116.187 442.172 120.553 454.434 125.74 466.438L134.568 485.478C134.169 486.461 133.928 487.238 133.91 488.306C133.86 491.277 132.804 494.306 132.342 497.25L130.681 509.436C130.412 511.029 131.05 513.296 130.312 514.684L129.819 514.498L129.716 513.819C129.51 512.522 128.995 511.362 128.502 510.154C128.247 509.013 127.862 508.037 127.324 507C126.902 506.187 126.705 505.379 126.308 504.585L124.316 500.625L120.752 492.748C120.515 492.118 120.055 491.486 119.909 490.897C119.764 490.313 119.466 489.921 119.252 489.373C119.013 488.761 118.558 488.099 118.411 487.522C118.264 486.941 117.965 486.545 117.752 485.998C117.513 485.386 117.052 484.722 116.909 484.147C116.764 483.563 116.466 483.171 116.252 482.623C116.012 482.009 115.571 481.355 115.416 480.772C115.251 480.149 115.397 480.526 115.033 479.8L114.752 479.248C114.457 478.546 114.253 477.867 113.907 477.175L112.139 472.873L110.992 469.852L109.907 466.873L109.691 466.125C109.121 465.026 109.49 466.113 109.149 464.965L108.392 462.748C107.626 459.877 106.349 456.981 105.421 454.123C103.228 447.37 99.5432 440.467 98.1692 433.584L98.0012 432.75C97.8596 432.272 97.6953 431.95 97.6688 431.44C97.3769 425.826 94.4628 418.884 92.2623 413.708C91.6619 412.295 90.3582 410.647 90.1557 409.166L90.1448 408.71L88.9783 407.979Z"/>
	<path fill="#EDF2F4" transform="scale(0.134375 0.133885)" d="M571.425 468.473C558.319 456.88 546.009 444.057 534.11 431.235C533.1 430.147 530.446 427.952 530 426.797C529.793 426.263 529.86 425.074 529.809 424.438L529.293 417.511C529.262 416.982 529.246 416.504 529.286 415.978C535.294 423.689 542.177 430.378 549.11 437.246L589.665 475.433C600.902 485.939 611.537 497.612 623.383 507.403C625.772 509.635 628.322 511.316 631.194 512.868C632.614 509.22 633.739 505.507 634.449 501.651C634.984 498.738 635.115 495.857 635.858 492.965L636.014 492.368L636.945 491.438L629.589 527.625C628.968 530.658 627.804 541.631 626.388 543.193L625.768 543.016C625.868 540.167 626.136 536.973 625.654 534.163L625.554 533.625C625.007 530.463 624 528.792 621.742 526.609C616.458 522.827 611.641 517.725 606.738 513.412L593.369 501.606C590.641 499.191 587.687 496.849 585.238 494.148L533.567 448.333L533.276 437.776C537.984 444.096 543.628 449.169 549.316 454.567L568.154 472.225C569.348 473.318 577.578 480.201 577.917 481.235C588.016 489.765 597.244 499.346 606.905 508.361L615.78 516.321C617.444 517.778 619.417 519.232 620.858 520.892C622.081 522.3 622.596 523.818 623.102 525.579L623.549 525.669L624.002 518.085C620.788 514.077 617.296 510.671 613.46 507.278C613.428 506.81 613.48 506.329 613.362 505.875C612.995 504.469 605.039 497.205 603.477 495.64L600.57 495.7L571.425 468.473Z"/>
	<path fill="#C0C6C1" transform="scale(0.134375 0.133885)" d="M571.425 468.473C572.236 468.525 572.637 468.325 573.199 468.968C573.644 469.478 573.868 469.899 574.142 470.506L575.091 470.438L603.477 495.64L600.57 495.7L571.425 468.473Z"/>
	<path fill="#EDF2F4" transform="scale(0.134375 0.133885)" d="M662.166 463.138L640.616 579.394L626.385 579.357C629.06 576.359 631.298 572.988 632.678 569.193C635.338 561.881 636.445 553.652 638.276 546.062C646.679 511.21 652.573 475.496 657.97 440.059L661.789 412.894C662.758 406.666 663.614 400.41 666.148 394.59L662.25 394.503C661.52 394.466 659.509 394.512 658.902 394.225C658.519 394.043 657.718 393.089 657.382 392.757L651.742 386.704L675.533 386.56L673.291 404.13L665.824 443.286L663.323 455.902C662.882 458.26 662.259 460.744 662.166 463.138Z"/>
	<path fill="#EDF2F4" transform="scale(0.134375 0.133885)" d="M183.591 597.144C185.534 597.307 188.868 600.757 190.513 601.96C202.233 610.533 214.575 618.952 227.415 625.769C228.368 626.275 230.406 627.714 231.395 627.848L255.375 640.514C274.253 649.502 293.686 656.397 314.105 660.944C326.69 663.746 339.915 665.727 352.807 666.292L364.175 666.47C365.376 666.474 367.488 666.182 368.514 666.734L369.905 673.547L371.222 678.489C377.689 678.918 384.239 678.722 390.722 678.723C393.384 678.724 396.63 679.095 399.226 678.562C399.916 677.563 400.186 676.423 400.534 675.274C400.533 673.351 401.369 670.892 401.793 668.98L402.938 664.934L404.219 664.453L404.981 665.073L401.192 678.408C401.196 679.833 400.468 681.761 400.139 683.186L397.217 695.745L388.407 733.918L384.646 751.561C384.347 752.689 384.014 753.535 383.194 754.372L382.688 754.076L368.387 674.928C368.105 673.995 367.097 668.956 366.685 668.548C366.402 668.267 353.932 668.287 352.482 668.243C318.508 667.211 285.76 657.219 255.011 643.204C242.261 637.392 229.739 631.022 217.935 623.442C205.743 615.613 194.481 606.674 183.591 597.144Z"/>
	<path fill="#EDF2F4" transform="scale(0.134375 0.133885)" d="M364.535 108.207C346.273 109.251 327.876 111.922 310.121 116.342L285.938 123.58L285.908 123.188L288.375 122.274C293.806 119.707 299.843 117.851 305.608 116.15C319.056 112.181 332.916 109.642 346.802 107.785L366.032 105.498C367.863 100.448 368.823 95.0076 370.119 89.7945L379.483 47.7448C381.096 40.3966 382.559 32.8897 384.736 25.6932C387.068 31.7721 387.791 38.9585 388.998 45.375L393.614 67.8972C395.633 78.0948 397.531 88.2818 400.289 98.3142C401.078 101.186 401.644 104.182 402.968 106.866L403.165 107.245L403.469 108.72L403.052 109.093C402.596 110.189 402.088 111.219 401.944 112.411L364.131 112.668C364.548 111.308 364.89 109.586 364.535 108.207Z"/>
	<path fill="#0D7116" transform="scale(0.134375 0.133885)" d="M364.535 108.207C366.093 107.96 366.541 108.15 367.462 106.816C369.899 103.289 370.733 97.8344 371.81 93.7119L395.91 93.7439L399.407 103.841C400.082 105.753 400.526 107.851 402.227 109.054L403.052 109.093C402.596 110.189 402.088 111.219 401.944 112.411L364.131 112.668C364.548 111.308 364.89 109.586 364.535 108.207Z"/>
	<defs>
		<linearGradient id="gradient_5" gradientUnits="userSpaceOnUse" x1="478.80679" y1="652.79474" x2="436.42892" y2="568.89539">
			<stop offset="0" stop-color="#002809"/>
			<stop offset="1" stop-color="#066E1D"/>
		</linearGradient>
	</defs>
	<path fill="url(#gradient_5)" transform="scale(0.134375 0.133885)" d="M288.353 644.385L303.835 648.754C315.568 651.549 327.796 653.322 339.781 654.646C351.371 655.927 363.225 655.516 374.863 655.507C404.406 655.487 434.815 653.633 463.627 646.653C475.953 643.667 487.93 639.496 499.647 634.664C509.055 630.784 518.229 626.497 526.955 621.232L550.125 606.359L569.387 595.914C576.267 591.904 583.643 586.395 589.201 580.713C594.159 575.646 598.848 570.203 603.239 564.636C603.841 563.872 605.966 560.367 606.585 560.431L623.085 560.574C618.971 562.824 615.819 566.032 612.433 569.223C603.568 577.577 595.449 587.622 585.414 594.589C574.816 601.946 563.668 608.398 552.59 614.985C542.709 620.859 532.863 626.703 522.533 631.767C495.101 645.214 464.752 654.634 434.498 658.872C424.271 660.304 414.002 660.909 403.713 661.605C401.635 661.745 401.116 662.206 399.659 663.67C399.371 663.961 398.457 665.04 398.028 665.098C396.709 665.277 394.779 664.876 393.408 664.836C386.479 664.638 378.744 665.016 372.043 663.075C362.052 660.182 351.832 659.755 341.614 658.163C325.858 655.707 310.231 652.522 294.807 648.477C293.727 648.194 288.995 647.326 288.331 646.605L288.544 646.343C288.022 645.756 287.81 645.875 287.062 645.75L286.738 644.884L287.101 644.644L288.174 644.986L288.353 644.385Z"/>
	<defs>
		<linearGradient id="gradient_6" gradientUnits="userSpaceOnUse" x1="242.37498" y1="144.78261" x2="273.25854" y2="186.19228">
			<stop offset="0" stop-color="#1EC31F"/>
			<stop offset="1" stop-color="#40E43E"/>
		</linearGradient>
	</defs>
	<path fill="url(#gradient_6)" transform="scale(0.134375 0.133885)" d="M325.654 116.794L339.562 114.781C341.283 114.556 343.872 113.901 345.562 114.16C345.929 114.216 346.697 114.771 347.058 114.966C344.611 115.593 340.743 116.164 339.04 118.125L339.054 118.875C340.397 119.409 341.935 119.388 343.351 119.652L354.519 121.484C356.617 121.563 358.851 121.508 360.922 121.809C360.192 121.882 358.18 121.861 357.587 122.143C357.529 122.17 356.609 123.142 356.529 123.192C355.805 123.649 352.84 123.368 351.705 123.727L338.936 125.883C324.863 128.185 311.43 130.834 297.883 135.42C285.72 139.537 273.404 145.357 262.161 151.543C255.404 155.26 248.502 158.915 242.831 164.21L247.888 161.728L248.53 162.616C242.679 165.947 237.313 169.505 231.879 173.474C228.747 175.762 225.697 178.431 222.359 180.389C219.474 180.601 216.093 182.95 213.283 183.96C208.056 185.838 202.441 186.984 197.438 189.421C189.888 193.098 183.649 199.06 177.328 204.471C172.762 208.38 167.906 212.19 163.994 216.784L162.848 218.202C161.898 217.622 161.164 216.861 160.356 216.102C167.418 207.446 175.221 199.771 183.34 192.118C205.652 171.085 230.946 152.397 258.483 138.752C267.673 134.199 277.175 130.659 286.786 127.141C299.47 122.498 312.232 118.643 325.654 116.794Z"/>
	<defs>
		<linearGradient id="gradient_7" gradientUnits="userSpaceOnUse" x1="542.96454" y1="143.25206" x2="472.48816" y2="201.10396">
			<stop offset="0" stop-color="#005D04"/>
			<stop offset="1" stop-color="#239C23"/>
		</linearGradient>
	</defs>
	<path fill="url(#gradient_7)" transform="scale(0.134375 0.133885)" d="M431.623 116.598C439.583 117.7 447.731 119.877 455.463 122.07C456.257 122.295 458.758 122.708 459.303 123.189C465.284 124.327 471.378 126.732 477.063 128.893C498.834 137.167 519.209 147.526 538.91 159.933C546.794 164.897 554.464 169.806 561.595 175.845C565.696 179.319 569.373 183.344 573.225 187.094L607.829 221.916L607.392 221.837C603.995 221.282 600.251 221.461 596.812 221.58C594.908 221.647 593.08 221.945 591.188 221.655L590.08 221.505L589.678 221.975L577.382 208.337C574.763 205.488 572.187 202.349 569.291 199.792C565.821 195.643 561.682 191.946 557.677 188.322C548.266 179.807 537.785 171.905 526.856 165.445L510.321 156.558C507.411 154.505 503.536 152.945 500.319 151.382C489.582 146.164 478.651 141.609 467.25 138.008C462.552 136.524 457.531 135.604 452.925 133.913L452.325 133.687C452.556 133.109 452.495 133.432 452.438 132.708C450.798 131.533 448.547 131.6 446.715 130.815L446.381 130.652L428.114 126.989C427.721 126.563 413.436 124.374 411.978 124.159L408.433 123.149C409.745 122.275 411.042 122.176 412.427 121.528C415.044 120.305 417.186 118.97 419.988 118.04C423.334 116.929 426.855 118.205 430.125 117.559C430.474 117.49 431.282 116.817 431.623 116.598Z"/>
	<defs>
		<linearGradient id="gradient_8" gradientUnits="userSpaceOnUse" x1="83.047783" y1="293.97842" x2="123.67769" y2="378.06308">
			<stop offset="0" stop-color="#2FA836"/>
			<stop offset="1" stop-color="#43484E"/>
		</linearGradient>
	</defs>
	<path fill="url(#gradient_8)" transform="scale(0.134375 0.133885)" d="M135.286 269.191L135.638 269.743C137.262 272.262 139.223 274.437 141.323 276.567C138.906 280.464 136.389 284.382 134.447 288.541C128.786 300.662 125.474 314.178 121.427 326.927L111.053 357.631L103.944 378.38C102.693 382.004 101.121 385.677 100.345 389.429L100.268 389.826L62.3666 389.841C65.4097 382.686 70.8466 375.543 75.1875 369.038L84.5906 354.764C85.0039 353.844 85.3482 353.231 86.03 352.464C90.6239 343.869 96.7467 335.004 102.544 327.179C106.72 321.544 112.304 316.295 114.941 309.745C115.564 306.734 116.559 301.671 114.892 298.895C115.097 297.326 115.953 295.614 116.621 294.188C119.186 288.705 123.177 283.96 126.896 279.238C129.588 275.821 132.167 272.235 135.286 269.191Z"/>
	<path fill="#8DAE94" transform="scale(0.134375 0.133885)" d="M114.941 309.745L116.294 311.062C116.072 313.67 114.969 315.978 113.613 318.19C109.611 324.721 103.968 330.787 99.1875 336.787L86.8026 352.729L86.03 352.464C90.6239 343.869 96.7467 335.004 102.544 327.179C106.72 321.544 112.304 316.295 114.941 309.745Z"/>
	<path fill="#EDF2F4" transform="scale(0.134375 0.133885)" d="M-0 764.341L768 764.568L768 768L-0 768L0 764.341Z"/>
	<defs>
		<linearGradient id="gradient_9" gradientUnits="userSpaceOnUse" x1="547.24268" y1="185.68544" x2="282.56674" y2="144.00195">
			<stop offset="0" stop-color="#0A0409"/>
			<stop offset="1" stop-color="#C6DCCC"/>
		</linearGradient>
	</defs>
	<path fill="url(#gradient_9)" transform="scale(0.134375 0.133885)" d="M371.744 135.341C375.484 134.853 379.333 134.995 383.103 134.983C392.05 134.955 400.741 135.475 409.608 136.721C419.622 137.957 429.214 139.738 438.992 142.219C442.723 143.165 446.566 144.005 450.204 145.266C470.42 150.449 490.254 158.899 507.4 170.819C513.614 175.139 520.046 180.244 524.816 186.187C525.709 187.3 526.689 188.361 527.444 189.562L531.662 194.8C532.086 195.312 532.344 195.758 532.691 196.312L534.659 198.925C535.084 199.435 535.347 199.885 535.691 200.438L536.066 201L536.408 201.527L537.752 203.248C538.886 204.656 540.754 206.231 541.502 207.748L541.761 208.089C542.313 208.824 542.602 209.646 543.191 210.375L542.816 211.688L543.559 212.812L543 213.184C541.712 212.183 538.553 209.478 537.887 208.028C535.466 203.968 530.163 200.184 526.483 197.141C503.485 178.123 477.782 165.544 449.435 156.664L408.505 148.39C407.311 148.689 405.117 148.197 403.797 148.087C394.162 147.286 384.559 147.336 374.902 147.34L285.615 156.689L283.125 156.566L282.75 156.938L282 156.941C281.447 157.488 281.801 157.312 280.875 157.316C281.303 156.453 282.014 156.348 282.863 155.949L282.444 155.401C287.179 153.043 292.375 151.297 297.359 149.548C312.257 144.32 327.267 141.016 342.837 138.507C352.38 136.97 362.07 135.595 371.744 135.341Z"/>
	<path fill="#EDF2F4" transform="scale(0.134375 0.133885)" d="M374.902 147.34C384.559 147.336 394.162 147.286 403.797 148.087C405.117 148.197 407.311 148.689 408.505 148.39L449.435 156.664C477.782 165.544 503.485 178.123 526.483 197.141C530.163 200.184 535.466 203.968 537.887 208.028L530.952 202.172C522.177 194.903 512.866 188.026 503.025 182.273C459.83 157.021 407.187 147.487 357.69 152.29C327.313 155.237 299.195 165.067 272.415 179.431C261.311 185.386 250.582 191.783 240.375 199.185C231.669 205.498 222.114 212.818 215.26 221.155L189.896 221.542C196.368 216.475 201.359 209.635 207.421 204.061C214.644 197.419 222.011 190.73 229.862 184.831C243.631 174.484 259.594 165.394 275.34 158.448L282.444 155.401L282.863 155.949C282.014 156.348 281.303 156.453 280.875 157.316C281.801 157.312 281.447 157.488 282 156.941L282.75 156.938L283.125 156.566L285.615 156.689L374.902 147.34Z"/>
	<path fill="#8DAE94" transform="scale(0.134375 0.133885)" d="M524.745 321.205C526.236 324.327 522.147 332.948 525.811 334.857C525.483 335.042 525.087 335.139 524.828 335.412C524.706 335.54 524.466 336.611 524.408 336.801L522.57 342.776L510.761 373.857L505.266 388.824C499.728 387.116 493.514 387.444 487.756 387.362L462.86 387.639L453.75 388.159C452.981 388.203 451.218 388.522 450.562 388.344C450.206 388.247 449.938 387.95 449.625 387.754C449.047 386.929 449.177 385.997 449.178 385.034L451.964 375.443C454.602 366.862 456.589 358.727 458.042 349.859L459.952 334.277C469.637 333.682 479.852 330.522 489.375 328.542L524.745 321.205Z"/>
	<path fill="#1AAC16" transform="scale(0.134375 0.133885)" d="M510.761 373.857L505.266 388.824C499.728 387.116 493.514 387.444 487.756 387.362L462.86 387.639L453.75 388.159C452.981 388.203 451.218 388.522 450.562 388.344C450.206 388.247 449.938 387.95 449.625 387.754C449.047 386.929 449.177 385.997 449.178 385.034L451.964 375.443C452.247 375.719 452.45 376.113 452.812 376.271C454.366 376.947 503.866 373.758 510.761 373.857Z"/>
	<path fill="#328539" transform="scale(0.134375 0.133885)" d="M570.451 421.082C571.641 418.642 572.809 415.864 574.569 413.783C575.832 412.29 578.397 410.296 580.392 410.201C581.328 410.157 580.841 410.369 581.578 409.791L581.335 408.562L581.867 408.151C583.966 408.347 585.496 409.589 587.352 410.503L588.073 410.232C588.795 410.081 588.836 410.136 589.422 409.737C593.804 413.352 597.8 417.631 601.96 421.521L625.913 443.936L634.767 452.767C636.19 454.248 638.361 457.32 640.381 457.821C639.447 459.305 640.173 459.761 640.002 461.374C638.08 470.739 634.787 479.929 633.91 489.469C633.732 491.41 633.393 493.906 633.952 495.782C632.966 500.093 630.836 504.094 629.97 508.504C629.873 509 629.931 508.786 629.711 509.301C627.922 505.695 626.307 503.173 623.526 500.268L615.911 494.766C615.574 493.953 614.274 492.94 613.622 492.294L607.125 486.024L576.572 457.312L567.13 449.496L553.953 437.157C551.915 435.155 549.322 433.075 547.987 430.538L539.645 422.015C543.769 422.591 547.703 421.776 551.812 421.633C557.962 421.419 564.352 421.826 570.451 421.082Z"/>
	<defs>
		<linearGradient id="gradient_10" gradientUnits="userSpaceOnUse" x1="584.57367" y1="467.27441" x2="587.92841" y2="463.24808">
			<stop offset="0" stop-color="#0D4124"/>
			<stop offset="1" stop-color="#10712B"/>
		</linearGradient>
	</defs>
	<path fill="url(#gradient_10)" transform="scale(0.134375 0.133885)" d="M547.987 430.538C551.7 432.001 554.402 434.527 557.378 437.116L570.938 449.517L583.568 459.807L608.273 483.335L617.864 492.666C619.81 494.593 621.889 496.132 623.088 498.684C623.336 499.213 623.428 499.697 623.526 500.268L615.911 494.766C615.574 493.953 614.274 492.94 613.622 492.294L607.125 486.024L576.572 457.312L567.13 449.496L553.953 437.157C551.915 435.155 549.322 433.075 547.987 430.538Z"/>
	<path fill="#5F9863" transform="scale(0.134375 0.133885)" d="M570.451 421.082C571.641 418.642 572.809 415.864 574.569 413.783C575.832 412.29 578.397 410.296 580.392 410.201C581.328 410.157 580.841 410.369 581.578 409.791L581.335 408.562L581.867 408.151C583.966 408.347 585.496 409.589 587.352 410.503L588.073 410.232C588.795 410.081 588.836 410.136 589.422 409.737C593.804 413.352 597.8 417.631 601.96 421.521L625.913 443.936L634.767 452.767C636.19 454.248 638.361 457.32 640.381 457.821C639.447 459.305 640.173 459.761 640.002 461.374C638.294 460.954 636.917 459.066 635.613 457.898L624.562 447.963L603.232 429.684L587.264 416.608C585.113 414.823 582.888 413.261 580.875 411.305C580.23 411.201 579.751 411.117 579.115 411.312C575.328 412.476 573.338 416.699 571.61 419.914C571.865 420.559 572.62 420.667 573.186 421.031L581.531 426.469C582.137 426.862 582.475 427.18 583.031 427.594L583.873 427.997C584.399 428.406 584.812 428.793 584.812 429.453C581.132 426.738 574.989 421.494 570.451 421.082Z"/>
	<path fill="#1AAC16" transform="scale(0.134375 0.133885)" d="M533.567 448.333L585.238 494.148C587.687 496.849 590.641 499.191 593.369 501.606L606.738 513.412C611.641 517.725 616.458 522.827 621.742 526.609C624 528.792 625.007 530.463 625.554 533.625L625.654 534.163C626.136 536.973 625.868 540.167 625.768 543.016L625.113 541.974C621.198 541.348 617.083 541.508 613.124 541.504L596.795 541.497L531.21 541.271C518.189 540.821 506.103 536.337 493.183 535.711L533.549 520.388C532.983 515.32 533.217 509.973 533.214 504.867L533.293 477.827L533.359 459.129C533.361 455.586 533.084 451.841 533.567 448.333Z"/>
	<defs>
		<linearGradient id="gradient_11" gradientUnits="userSpaceOnUse" x1="624.05298" y1="462.5564" x2="580.02502" y2="346.17563">
			<stop offset="0" stop-color="#669E6F"/>
			<stop offset="1" stop-color="#BAD1B9"/>
		</linearGradient>
	</defs>
	<path fill="url(#gradient_11)" transform="scale(0.134375 0.133885)" d="M526.983 346.652C527.289 348.077 527.575 349.992 528.723 351.01C529.455 351.86 532.534 353.404 532.67 354.208L541.589 360.936C542.962 360.549 543.379 360.565 544.774 360.956L545.275 361.045C548.952 361.724 552.908 363.567 556.533 364.694L579.887 371.651C581.266 372.099 585.338 373.119 586.215 374.123C593.323 376.912 600.32 380.392 607.031 384.043L623.338 393.276C629.989 397.128 637.997 402.647 645.782 403.314L646.296 403.768L644.429 435.938L644.452 436.653C644.734 436.632 645.124 436.524 645.37 436.667C644.859 441.94 642.832 446.788 642.527 452.124C642.453 453.424 642.265 454.793 642.641 456.049L642.276 455.991L640.381 457.821C638.361 457.32 636.19 454.248 634.767 452.767L625.913 443.936L601.96 421.521C597.8 417.631 593.804 413.352 589.422 409.737C588.836 410.136 588.795 410.081 588.073 410.232L587.352 410.503C585.496 409.589 583.966 408.347 581.867 408.151L581.335 408.562L581.578 409.791C580.841 410.369 581.328 410.157 580.392 410.201C578.397 410.296 575.832 412.29 574.569 413.783C572.809 415.864 571.641 418.642 570.451 421.082C564.352 421.826 557.962 421.419 551.812 421.633C547.703 421.776 543.769 422.591 539.645 422.015L535.663 418.079L530.743 412.738C530.356 412.276 529.583 411.574 529.347 411.047C529.121 410.544 529.198 409.049 529.156 408.46L528.708 400.129L527.043 350.402L526.983 346.652Z"/>
	<path transform="scale(0.134375 0.133885)" d="M532.67 354.208L541.589 360.936L563.326 379.94C569.427 386.362 576.371 392.167 582.835 398.231L619.348 432.627C626.101 438.903 633.711 444.992 639.754 451.921C640.84 453.166 641.59 454.497 642.276 455.991L640.381 457.821C638.361 457.32 636.19 454.248 634.767 452.767L625.913 443.936L601.96 421.521C597.8 417.631 593.804 413.352 589.422 409.737C585.716 405.502 581.306 401.662 577.289 397.71L552.658 373.916C547.786 369.339 543.029 363.861 537.717 359.85C536.33 358.133 533.369 356.247 532.67 354.208Z"/>
	<defs>
		<linearGradient id="gradient_12" gradientUnits="userSpaceOnUse" x1="560.65387" y1="421.78665" x2="549.38947" y2="350.20029">
			<stop offset="0" stop-color="#76AE79"/>
			<stop offset="1" stop-color="#B8CAB9"/>
		</linearGradient>
	</defs>
	<path fill="url(#gradient_12)" transform="scale(0.134375 0.133885)" d="M526.983 346.652C527.289 348.077 527.575 349.992 528.723 351.01C529.455 351.86 532.534 353.404 532.67 354.208C533.369 356.247 536.33 358.133 537.717 359.85C543.029 363.861 547.786 369.339 552.658 373.916L577.289 397.71C581.306 401.662 585.716 405.502 589.422 409.737C588.836 410.136 588.795 410.081 588.073 410.232L587.352 410.503C585.496 409.589 583.966 408.347 581.867 408.151L581.335 408.562L581.578 409.791C580.841 410.369 581.328 410.157 580.392 410.201C578.397 410.296 575.832 412.29 574.569 413.783C572.809 415.864 571.641 418.642 570.451 421.082C564.352 421.826 557.962 421.419 551.812 421.633C547.703 421.776 543.769 422.591 539.645 422.015L535.663 418.079L530.743 412.738C530.356 412.276 529.583 411.574 529.347 411.047C529.121 410.544 529.198 409.049 529.156 408.46L528.708 400.129L527.043 350.402L526.983 346.652Z"/>
	<path fill="#C0C6C1" transform="scale(0.134375 0.133885)" d="M526.983 346.652C527.289 348.077 527.575 349.992 528.723 351.01C529.455 351.86 532.534 353.404 532.67 354.208C533.369 356.247 536.33 358.133 537.717 359.85L537.24 359.875C536.158 359.801 534.711 357.945 533.906 357.186C533.729 357.981 533.372 358.251 532.781 358.785C530.263 356.991 527.812 353.365 527.043 350.402L526.983 346.652Z"/>
	<path fill="#EDF2F4" transform="scale(0.134375 0.133885)" d="M459.952 334.277C459.838 333.735 459.559 332.96 459.562 332.425C459.569 331.35 460.547 329.511 461.008 328.527L466.381 317.926L471.962 305.866L536.209 304.808L549.836 304.509C550.491 304.51 552.526 304.295 552.988 304.538C554.625 305.402 556.66 307.938 558.054 309.295L571.49 322.308L618.553 366.316L639.893 386.106C643.603 389.462 647.23 393.041 651.321 395.934L645.37 436.667C645.124 436.524 644.734 436.632 644.452 436.653L644.429 435.938L646.296 403.768L645.782 403.314C637.997 402.647 629.989 397.128 623.338 393.276L607.031 384.043C600.32 380.392 593.323 376.912 586.215 374.123C585.338 373.119 581.266 372.099 579.887 371.651L556.533 364.694C552.908 363.567 548.952 361.724 545.275 361.045L544.774 360.956C543.379 360.565 542.962 360.549 541.589 360.936L532.67 354.208C532.534 353.404 529.455 351.86 528.723 351.01C527.575 349.992 527.289 348.077 526.983 346.652C526.858 342.816 526.661 338.602 525.811 334.857C522.147 332.948 526.236 324.327 524.745 321.205L489.375 328.542C479.852 330.522 469.637 333.682 459.952 334.277Z"/>
	<defs>
		<linearGradient id="gradient_13" gradientUnits="userSpaceOnUse" x1="599.22791" y1="417.61502" x2="567.21771" y2="308.35861">
			<stop offset="0" stop-color="#A7BAA7"/>
			<stop offset="1" stop-color="#F5F4F5"/>
		</linearGradient>
	</defs>
	<path fill="url(#gradient_13)" transform="scale(0.134375 0.133885)" d="M524.745 321.205L525.173 321.109C532.281 319.348 538.928 316.722 546.284 315.75L579.468 344.461L621.981 381.238L636.759 393.919C639.671 396.348 642.932 399.352 646.408 400.924C646.454 401.885 646.569 402.832 646.296 403.768L645.782 403.314C637.997 402.647 629.989 397.128 623.338 393.276L607.031 384.043C600.32 380.392 593.323 376.912 586.215 374.123C585.338 373.119 581.266 372.099 579.887 371.651L556.533 364.694C552.908 363.567 548.952 361.724 545.275 361.045L544.774 360.956C543.379 360.565 542.962 360.549 541.589 360.936L532.67 354.208C532.534 353.404 529.455 351.86 528.723 351.01C527.575 349.992 527.289 348.077 526.983 346.652C526.858 342.816 526.661 338.602 525.811 334.857C522.147 332.948 526.236 324.327 524.745 321.205Z"/>
	<path fill="#8DAE94" transform="scale(0.134375 0.133885)" d="M164.489 271.145L211.468 271.229L211.882 278.491L235.681 314.262C235.802 312.822 235.832 311.323 236.177 309.92L234.691 408.162C233.658 408.467 233.317 409.099 232.811 410.034L232.574 410.503L232.199 409.903C229.007 404.474 223.663 399.447 219.329 394.872L187.843 362.459C183.326 357.746 177.988 352.943 174.219 347.637L173.614 347.025C171.467 344.574 169.408 341.81 167.587 339.113C167.172 338.498 166.23 337.287 166.106 336.606C165.928 335.635 166.762 332.939 166.927 331.846L168.522 319.155L172.538 271.504C169.988 271.508 167.396 271.614 164.87 271.212L164.489 271.145Z"/>
	<path fill="#EDF2F4" transform="scale(0.134375 0.133885)" d="M641.117 228.188L642.543 228.188L623.064 248.001L612.51 258.105C611.224 259.337 609 261.063 608.115 262.52C607.524 263.495 607.341 266.115 607.001 267.342C604.042 278.003 600.659 288.72 598.327 299.531L572.724 299.915L583.927 270.295L483.938 269.977L441.35 270.068L469.104 232.853C470.318 231.495 471.607 230.077 473.479 229.717C478.189 228.812 483.72 229.21 488.522 229.17L517.182 229.075L593.255 228.831L641.117 228.188Z"/>
	<defs>
		<linearGradient id="gradient_14" gradientUnits="userSpaceOnUse" x1="205.93188" y1="533.80591" x2="165.62027" y2="352.65457">
			<stop offset="0" stop-color="#009D00"/>
			<stop offset="1" stop-color="#77A97D"/>
		</linearGradient>
	</defs>
	<path fill="url(#gradient_14)" transform="scale(0.134375 0.133885)" d="M168.401 352.155L169.122 351.795C169.846 352.618 170.45 353.395 171.039 354.32L200.232 383.422L205.675 388.872C206.291 389.49 207.472 390.382 207.796 391.181C213.397 396.179 218.508 401.766 223.8 407.088C225.496 408.794 228.987 411.392 229.887 413.567C230.638 415.379 230.477 419.142 230.628 421.164C231.294 430.091 231.192 439.74 233.871 448.34L234.289 441.935L236.316 522.074C235.6 521.912 234.132 519.883 233.504 519.205C231.457 516.996 229.08 515.216 226.968 513.094L227.177 512.76C227.748 511.746 227.992 510.834 228.067 509.684C228.419 504.291 228.222 498.781 228.259 493.371L228.437 463.307L228.49 452.353C228.492 451.029 228.756 449.034 228.32 447.838L228.183 447.562C227.57 447.562 227.512 447.424 227.042 447.901C225.888 449.073 225.656 454.291 225.457 455.967C223.81 469.777 223.719 484.098 223.505 498L223.444 506.994C223.443 507.21 223.523 508.86 223.44 508.98C222.499 510.347 219.593 512.102 218.099 512.988L201.777 521.622L160.984 543.844L160.986 543.166C160.489 543.289 160.191 543.365 159.75 543.658L159.375 543.938C158.614 544.031 158.607 544.194 158.062 544.691C158.088 543.346 158.239 541.799 157.862 540.498L157.669 539.896L164.806 394.04L166.01 364.125C166.206 360.739 166.11 357.073 166.788 353.754L167.079 354.479L167.741 354.188C167.81 353.585 167.898 353.206 168.158 352.644L168.401 352.155Z"/>
	<path transform="scale(0.134375 0.133885)" d="M212.002 440.062C212.377 440.135 212.171 440.052 212.553 440.438C209.356 448.411 204.038 455.619 198.805 462.375C193.3 469.482 187.202 476.771 180.199 482.438L179.894 482.44L179.753 482.062C182.88 476.892 186.881 472.133 190.507 467.3L212.002 440.062Z"/>
	<path transform="scale(0.134375 0.133885)" d="M168.401 352.155L169.122 351.795C169.846 352.618 170.45 353.395 171.039 354.32L170.989 363.331C170.972 364.474 170.689 366.322 170.95 367.399L170.898 367.831C170.415 372.055 170.438 376.393 170.284 380.642L169.45 399.988L166.058 452.097C165.769 455.541 166.216 461.807 164.526 464.684C163.058 457.894 163.624 451.202 163.896 444.317L165.77 410.128C166.026 405.326 166.612 400.348 166.465 395.553L168.401 352.155Z"/>
	<path fill="#EDF2F4" transform="scale(0.134375 0.133885)" d="M164.489 271.145L164.014 271.099C162.311 270.696 160.001 268.006 158.721 266.827C151.621 260.292 144.914 253.413 138.688 246.036L124 228.079L124.408 228.126C129.297 228.642 134.456 228.397 139.377 228.424L166.417 228.493L248.115 228.751L268.129 228.736C269.719 228.736 272.838 228.354 274.253 228.818C274.633 228.943 275.506 229.958 275.841 230.268L282.089 236.507L305.298 260.995L343.442 298.65L389.866 345.737L430.761 386.49C435.898 391.463 440.912 397.36 446.601 401.662C446.633 403.684 445.501 405.522 445.388 407.556L444.969 407.558C443.569 403.418 440.687 400.693 437.52 397.801C436.447 397.779 435.774 397.749 434.784 397.266C434.277 397.019 433.902 396.802 433.348 396.659L432.938 396.566C432.326 395.848 431.721 395.524 430.9 395.101L430.573 394.936C431.182 395.716 431.935 396.424 431.938 397.463L431.25 397.483C427.21 395.201 423.651 391.647 420.192 388.574L395.609 364.7L342.99 314.71L272.146 318.878L250.1 296.557L237.514 283.409L236.177 309.92C235.832 311.323 235.802 312.822 235.681 314.262L211.882 278.491L211.468 271.229L164.489 271.145Z"/>
	<path fill="#8DAE94" transform="scale(0.134375 0.133885)" d="M366.848 329.666C365.555 328.99 364.149 326.963 363.103 325.82L351.453 312.684L321.125 281.385C318.072 278.183 314.557 275.144 311.816 271.688L312.375 271.402L367.687 327.256L367.307 327.211C366.062 326.874 364.777 325.144 363.938 324.191L363.566 325.312L366.884 329.081L366.848 329.666Z"/>
	<defs>
		<linearGradient id="gradient_15" gradientUnits="userSpaceOnUse" x1="397.13919" y1="363.58545" x2="401.35806" y2="359.00357">
			<stop offset="0" stop-color="#423640"/>
			<stop offset="1" stop-color="#81A47B"/>
		</linearGradient>
	</defs>
	<path fill="url(#gradient_15)" transform="scale(0.134375 0.133885)" d="M366.848 329.666L366.884 329.081L363.566 325.312L363.938 324.191C364.777 325.144 366.062 326.874 367.307 327.211L367.687 327.256L437.52 397.801C436.447 397.779 435.774 397.749 434.784 397.266C434.277 397.019 433.902 396.802 433.348 396.659L432.938 396.566C432.326 395.848 431.721 395.524 430.9 395.101L430.573 394.936C429.43 394.496 424.051 388.344 422.661 386.954L386.112 349.995L366.848 329.666Z"/>
	<defs>
		<linearGradient id="gradient_16" gradientUnits="userSpaceOnUse" x1="403.74573" y1="499.3273" x2="435.6456" y2="371.20151">
			<stop offset="0" stop-color="#00AC00"/>
			<stop offset="1" stop-color="#5A975F"/>
		</linearGradient>
	</defs>
	<path fill="url(#gradient_16)" transform="scale(0.134375 0.133885)" d="M342.99 314.71L395.609 364.7L420.192 388.574C423.651 391.647 427.21 395.201 431.25 397.483L431.938 397.463C431.935 396.424 431.182 395.716 430.573 394.936L430.9 395.101C431.721 395.524 432.326 395.848 432.938 396.566L433.348 396.659C433.902 396.802 434.277 397.019 434.784 397.266C435.774 397.749 436.447 397.779 437.52 397.801C440.687 400.693 443.569 403.418 444.969 407.558L445.388 407.556C445.501 405.522 446.633 403.684 446.601 401.662C447.472 400.57 447.971 399.264 448.116 397.875C446.643 395.404 444.331 393.122 442.443 390.937L431.113 378L431.438 377.441C431.988 377.929 432.564 378.401 433.033 378.97L447.482 394.688L447.785 394.688C447.506 393.574 447.261 392.613 447.601 391.486L449.178 385.034C449.177 385.997 449.047 386.929 449.625 387.754C449.938 387.95 450.206 388.247 450.562 388.344C451.218 388.522 452.981 388.203 453.75 388.159L462.86 387.639L487.756 387.362C493.514 387.444 499.728 387.116 505.266 388.824C500.018 403.832 495.109 419.126 488.812 433.744L475.226 461.778L467.219 480.305C462.269 490.983 456.399 501.656 449.823 511.42L439.274 497.26L412.66 464.38L400.566 451.268L381.029 431.245C380.179 430.329 377.863 428.363 377.551 427.345L368.668 417.508L348.53 396.008C347.686 395.565 346.445 393.914 345.704 393.153L336.424 383.053C335.284 382.513 333.727 380.291 332.763 379.275L323.584 369.905L272.146 318.878L342.99 314.71Z"/>
	<path fill="#1AAC16" transform="scale(0.134375 0.133885)" d="M368.668 417.508C370.21 417.897 371.082 418.322 372.296 419.335L373.875 420.661C374.463 420.496 374.725 420.377 375.264 420.038C376.954 420.868 378.738 422.638 380.082 423.971C380.533 424.419 380.347 424.269 381.002 424.498C381.511 425.157 381.563 425.107 381.689 425.998C381.186 425.889 380.959 425.579 380.584 425.255L379.749 424.597C379.158 424.143 378.697 423.668 378.186 423.13L378.094 424.781C378.615 425.207 379.06 425.369 379.23 426.037L378.809 425.949C378.283 425.855 377.869 425.866 377.344 425.906L377.919 426.769L377.551 427.345L368.668 417.508Z"/>
	<path transform="scale(0.134375 0.133885)" d="M483.811 437.812C484.302 437.924 484.031 437.803 484.503 438.375C483.476 441.511 481.83 444.396 480.393 447.357C476.229 455.936 471.593 463.921 466.446 471.938C466.129 471.891 466.342 471.934 465.827 471.732C467.382 464.892 470.398 458.957 473.759 452.87C476.718 447.51 479.757 442.435 483.811 437.812Z"/>
	<path transform="scale(0.134375 0.133885)" d="M392.721 433.688L393.023 433.699C395.845 434.494 399.362 438.35 401.625 440.296C418.077 454.446 432.184 469.941 444.159 488.062C442.53 487.556 433.492 475.309 431.664 473.217L412.843 453.308C406.325 446.617 399.801 439.787 392.721 433.688Z"/>
	<path fill="#8DAE94" transform="scale(0.134375 0.133885)" d="M336.424 383.053C338.308 383.32 339.456 386.432 341.003 385.935L345.564 390.177C345.562 389.322 343.548 387.388 342.938 386.625L339.81 383.003L340.034 382.532L347.763 391.185L348.628 390.867L348.971 391.044C350.481 391.781 351.641 391.788 353.291 391.723L372.567 409.197C369.985 408.866 366.831 408.104 364.678 406.58C362.089 404.748 357.839 398.567 354.827 398.392L360.341 404.494L369.977 415.246L369.981 415.218L375.264 420.038C374.725 420.377 374.463 420.496 373.875 420.661L372.296 419.335C371.082 418.322 370.21 417.897 368.668 417.508L348.53 396.008C347.686 395.565 346.445 393.914 345.704 393.153L336.424 383.053Z"/>
	<path transform="scale(0.134375 0.133885)" d="M317.579 351.191L334.053 365.48C334.929 366.233 337.373 368.842 338.326 369.098L353.302 383.038C355.385 385.003 358.205 388.436 360.688 389.742C363.203 390.336 365.508 391.679 367.768 392.899C369.11 393.624 370.23 395.09 371.251 396.207C372.107 397.133 373.025 398.039 373.716 399.098L383.2 407.232C385.047 408.8 387.163 410.239 388.711 412.116C389.992 413.667 390.906 415.509 391.814 417.293L392.056 417.527L417.322 443.369L432.27 458.515C434.928 461.339 437.975 464.27 439.943 467.618C434.331 464.188 429.64 459.278 424.848 454.807L399.434 430.663C396.447 427.899 393.228 424.274 389.858 422.051L389.422 422.388L382.039 416.543C379.304 413.779 375.712 411.493 372.567 409.197L353.291 391.723L348.351 386.714C347.026 386.142 345.032 383.495 343.877 382.335L320.644 357.75L320.884 357.526L325.125 361.688L325.735 361.285C325.289 360.745 324.966 360.314 324.335 359.975C323.771 359.672 323.873 359.643 323.625 359.062C322.39 358.594 321.525 357.403 320.697 356.413L321.416 356.009C321.321 355.347 317.813 352.402 317.203 351.869L317.579 351.191Z"/>
	<path fill="#5F9863" transform="scale(0.134375 0.133885)" d="M366.009 394.602L371.251 396.207C372.107 397.133 373.025 398.039 373.716 399.098L370.92 399.21L366.009 394.602Z"/>
	<path fill="#1AAC16" transform="scale(0.134375 0.133885)" d="M360.688 389.742C363.203 390.336 365.508 391.679 367.768 392.899C369.11 393.624 370.23 395.09 371.251 396.207L366.009 394.602L360.688 389.742Z"/>
	<path fill="#328539" transform="scale(0.134375 0.133885)" d="M370.92 399.21L373.716 399.098L383.2 407.232C385.047 408.8 387.163 410.239 388.711 412.116C389.992 413.667 390.906 415.509 391.814 417.293L370.92 399.21Z"/>
	<path fill="#EDF2F4" transform="scale(0.134375 0.133885)" d="M348.351 386.714C347.026 386.142 345.032 383.495 343.877 382.335L320.644 357.75L320.884 357.526L325.125 361.688L325.735 361.285C325.289 360.745 324.966 360.314 324.335 359.975C323.771 359.672 323.873 359.643 323.625 359.062C322.39 358.594 321.525 357.403 320.697 356.413L321.416 356.009L367.737 400.745L389.858 422.051L389.422 422.388L382.039 416.543C379.304 413.779 375.712 411.493 372.567 409.197L353.291 391.723L348.351 386.714Z"/>
	<defs>
		<linearGradient id="gradient_17" gradientUnits="userSpaceOnUse" x1="395.9935" y1="427.51755" x2="390.4259" y2="364.88708">
			<stop offset="0" stop-color="#469F4A"/>
			<stop offset="1" stop-color="#84B686"/>
		</linearGradient>
	</defs>
	<path fill="url(#gradient_17)" transform="scale(0.134375 0.133885)" d="M395.609 364.7L420.192 388.574C423.651 391.647 427.21 395.201 431.25 397.483L431.938 397.463C431.935 396.424 431.182 395.716 430.573 394.936L430.9 395.101C431.721 395.524 432.326 395.848 432.938 396.566L433.348 396.659C433.902 396.802 434.277 397.019 434.784 397.266C435.774 397.749 436.447 397.779 437.52 397.801C440.687 400.693 443.569 403.418 444.969 407.558L445.388 407.556C445.742 413.376 442.274 419.85 439.174 424.579L410.522 425.353C408.052 425.375 404.132 425.839 401.812 425.128C401.173 424.932 400.143 423.963 399.627 423.484C397.431 421.447 395.566 419.203 393.185 417.345L392.056 417.527L391.814 417.293C390.906 415.509 389.992 413.667 388.711 412.116C387.163 410.239 385.047 408.8 383.2 407.232L373.716 399.098C373.025 398.039 372.107 397.133 371.251 396.207C370.23 395.09 369.11 393.624 367.768 392.899C365.508 391.679 363.203 390.336 360.688 389.742C358.205 388.436 355.385 385.003 353.302 383.038L338.326 369.098L339.253 369.261L340.378 369.809C341.114 370.043 341.434 369.955 342.117 369.639C343.571 368.966 345.415 369.232 346.997 369.204L354.504 368.788L380.262 365.535C385.362 365.004 390.576 365.294 395.609 364.7Z"/>
	<defs>
		<linearGradient id="gradient_18" gradientUnits="userSpaceOnUse" x1="342.23743" y1="391.93756" x2="328.06821" y2="309.7594">
			<stop offset="0" stop-color="#79B07C"/>
			<stop offset="1" stop-color="#B4CFB4"/>
		</linearGradient>
	</defs>
	<path fill="url(#gradient_18)" transform="scale(0.134375 0.133885)" d="M342.99 314.71L395.609 364.7C390.576 365.294 385.362 365.004 380.262 365.535L354.504 368.788L346.997 369.204C345.415 369.232 343.571 368.966 342.117 369.639C341.434 369.955 341.114 370.043 340.378 369.809L339.253 369.261L338.326 369.098C337.373 368.842 334.929 366.233 334.053 365.48L317.579 351.191L317.203 351.869C317.813 352.402 321.321 355.347 321.416 356.009L320.697 356.413C321.525 357.403 322.39 358.594 323.625 359.062C323.873 359.643 323.771 359.672 324.335 359.975C324.966 360.314 325.289 360.745 325.735 361.285L325.125 361.688L320.884 357.526L320.644 357.75L343.877 382.335C345.032 383.495 347.026 386.142 348.351 386.714L353.291 391.723C351.641 391.788 350.481 391.781 348.971 391.044L348.628 390.867L347.763 391.185L340.034 382.532L339.81 383.003L342.938 386.625C343.548 387.388 345.562 389.322 345.564 390.177L341.003 385.935C339.456 386.432 338.308 383.32 336.424 383.053C335.284 382.513 333.727 380.291 332.763 379.275L323.584 369.905L272.146 318.878L342.99 314.71Z"/>
	<path fill="#8DAE94" transform="scale(0.134375 0.133885)" d="M317.203 351.869C314.844 350.363 312.804 347.712 310.604 345.928L310.125 345.548C308.858 344.515 307.329 343.934 306.001 342.866L305.445 342.41C304.732 341.839 304.24 341.387 303.741 340.625C303.18 339.767 303.353 339.561 303.562 338.581C307.209 340.384 308.891 343.494 311.861 345.908C312.2 346.184 312.584 346.634 312.934 346.875C314.251 347.783 315.208 349.116 316.467 350.124C316.888 350.462 317.219 350.789 317.579 351.191L317.203 351.869Z"/>
</svg>
